<svg width="21" height="21" viewBox="0 0 21 21" fill="none" xmlns="http://www.w3.org/2000/svg">
<path d="M13.1667 8H13.175M13.1667 13C15.9281 13 18.1667 10.7614 18.1667 8C18.1667 5.23858 15.9281 3 13.1667 3C10.4053 3 8.16669 5.23858 8.16669 8C8.16669 8.22807 8.18196 8.45256 8.21153 8.67253C8.26017 9.03432 8.28449 9.21521 8.26812 9.32966C8.25106 9.44888 8.22935 9.51312 8.17059 9.61825C8.11419 9.71917 8.01478 9.81857 7.81596 10.0174L3.55721 14.2761C3.41308 14.4203 3.34102 14.4923 3.28949 14.5764C3.2438 14.651 3.21013 14.7323 3.18971 14.8173C3.16669 14.9132 3.16669 15.0151 3.16669 15.219V16.6667C3.16669 17.1334 3.16669 17.3667 3.25751 17.545C3.33741 17.7018 3.46489 17.8293 3.62169 17.9092C3.79995 18 4.03331 18 4.50002 18H5.94774C6.15156 18 6.25347 18 6.34938 17.977C6.43441 17.9566 6.5157 17.9229 6.59026 17.8772C6.67435 17.8257 6.74642 17.7536 6.89054 17.6095L11.1493 13.3507C11.3481 13.1519 11.4475 13.0525 11.5484 12.9961C11.6536 12.9373 11.7178 12.9156 11.837 12.8986C11.9515 12.8822 12.1324 12.9065 12.4942 12.9552C12.7141 12.9847 12.9386 13 13.1667 13Z" stroke="#525761" stroke-width="1.5" stroke-linecap="round" stroke-linejoin="round"/>
</svg>
