<svg width="59" height="70" viewBox="0 0 59 70" fill="none" xmlns="http://www.w3.org/2000/svg">
<path d="M58.8132 12.8822L41.5288 22.2391V3.52539H58.8132V12.8822ZM58.8132 34.5984L41.5288 43.9553V25.2416H58.8132V34.5984ZM58.8132 57.1182L41.5288 66.475V47.7613H58.8132V57.1182Z" fill="#333940"/>
<path d="M0.187012 12.8822L17.4714 22.2391V3.52539H0.187012V12.8822ZM0.187012 34.5984L17.4714 43.9553V25.2416H0.187012V34.5984ZM0.187012 57.1182L17.4714 66.475V47.7613H0.187012V57.1182Z" fill="#353D44"/>
<path d="M12.9888 0.0390625H46.0112V69.1574H12.9888V0.0390625Z" fill="#555A66"/>
<path d="M12.9888 0.0390625H46.0112V69.1574H12.9888V0.0390625Z" fill="#555A66"/>
<path d="M29.4814 0.0390625H46.0113V69.1574H29.4814V0.0390625Z" fill="#353D44"/>
<path d="M29.4999 22.3563C34.6675 22.3563 38.8567 18.1671 38.8567 12.9994C38.8567 7.83178 34.6675 3.64258 29.4999 3.64258C24.3323 3.64258 20.1431 7.83178 20.1431 12.9994C20.1431 18.1671 24.3323 22.3563 29.4999 22.3563Z" fill="#353D44"/>
<path d="M29.5 3.64258L29.4814 3.64297V22.3559L29.5 22.3563C34.6676 22.3563 38.8568 18.167 38.8568 12.9994C38.8568 7.83184 34.6676 3.64258 29.5 3.64258Z" fill="#555A66"/>
<path d="M29.4999 44.3563C34.6675 44.3563 38.8567 40.1671 38.8567 34.9994C38.8567 29.8318 34.6675 25.6426 29.4999 25.6426C24.3323 25.6426 20.1431 29.8318 20.1431 34.9994C20.1431 40.1671 24.3323 44.3563 29.4999 44.3563Z" fill="#353D44"/>
<path d="M29.5 25.6426L29.4814 25.643V44.3559L29.5 44.3563C34.6676 44.3563 38.8568 40.167 38.8568 34.9994C38.8568 29.8318 34.6676 25.6426 29.5 25.6426Z" fill="#555A66"/>
<path d="M29.855 66.71C35.0216 66.71 39.21 62.5216 39.21 57.355C39.21 52.1884 35.0216 48 29.855 48C24.6884 48 20.5 52.1884 20.5 57.355C20.5 62.5216 24.6884 66.71 29.855 66.71Z" fill="#7FE881"/>
<path d="M29.855 48L29.8364 48.0004V66.7096L29.855 66.71C35.0215 66.71 39.21 62.5216 39.21 57.355C39.21 52.1884 35.0215 48 29.855 48Z" fill="#5BC980"/>
</svg>
