<svg width="21" height="21" viewBox="0 0 21 21" fill="none" xmlns="http://www.w3.org/2000/svg">
<path d="M17.9999 17.9999H11.3333M2.58325 18.4166L7.20764 16.638C7.50343 16.5242 7.65132 16.4673 7.78968 16.3931C7.91259 16.3271 8.02975 16.251 8.13995 16.1654C8.26402 16.0692 8.37606 15.9571 8.60015 15.733L17.9999 6.33326C18.9204 5.41279 18.9204 3.9204 17.9999 2.99993C17.0795 2.07945 15.5871 2.07945 14.6666 2.99992L5.26682 12.3997C5.04273 12.6238 4.93069 12.7358 4.83441 12.8599C4.7489 12.9701 4.67275 13.0873 4.60678 13.2102C4.53251 13.3485 4.47563 13.4964 4.36186 13.7922L2.58325 18.4166ZM2.58325 18.4166L4.29835 13.9574C4.42108 13.6383 4.48245 13.4787 4.5877 13.4057C4.67969 13.3418 4.7935 13.3176 4.9035 13.3386C5.02936 13.3627 5.15024 13.4836 5.39199 13.7253L7.27456 15.6079C7.51631 15.8496 7.63719 15.9705 7.66122 16.0964C7.68223 16.2064 7.65807 16.3202 7.59421 16.4122C7.52112 16.5174 7.36158 16.5788 7.04248 16.7015L2.58325 18.4166Z" stroke="#525761" stroke-width="1.5" stroke-linecap="round" stroke-linejoin="round"/>
</svg>
