<svg width="30" height="30" viewBox="0 0 30 30" fill="none" xmlns="http://www.w3.org/2000/svg">
<path d="M4.33329 23.0003V22.7337C4.33329 20.4934 4.33329 19.3733 4.76927 18.5177C5.15276 17.765 5.76468 17.1531 6.51733 16.7696C7.37298 16.3337 8.49308 16.3337 10.7333 16.3337H19.2666C21.5068 16.3337 22.6269 16.3337 23.4826 16.7696C24.2352 17.1531 24.8472 17.765 25.2307 18.5177C25.6666 19.3733 25.6666 20.4934 25.6666 22.7337V23.0003M4.33329 23.0003C2.86053 23.0003 1.66663 24.1942 1.66663 25.667C1.66663 27.1398 2.86053 28.3337 4.33329 28.3337C5.80605 28.3337 6.99996 27.1398 6.99996 25.667C6.99996 24.1942 5.80605 23.0003 4.33329 23.0003ZM25.6666 23.0003C24.1939 23.0003 23 24.1942 23 25.667C23 27.1398 24.1939 28.3337 25.6666 28.3337C27.1394 28.3337 28.3333 27.1398 28.3333 25.667C28.3333 24.1942 27.1394 23.0003 25.6666 23.0003ZM15 23.0003C13.5272 23.0003 12.3333 24.1942 12.3333 25.667C12.3333 27.1398 13.5272 28.3337 15 28.3337C16.4727 28.3337 17.6666 27.1398 17.6666 25.667C17.6666 24.1942 16.4727 23.0003 15 23.0003ZM15 23.0003V9.66699M6.99996 9.66699H23C24.2425 9.66699 24.8637 9.66699 25.3538 9.464C26.0072 9.19335 26.5263 8.67422 26.797 8.02082C27 7.53076 27 6.9095 27 5.66699C27 4.42448 27 3.80323 26.797 3.31317C26.5263 2.65976 26.0072 2.14063 25.3538 1.86998C24.8637 1.66699 24.2425 1.66699 23 1.66699H6.99996C5.75745 1.66699 5.13619 1.66699 4.64614 1.86998C3.99273 2.14063 3.4736 2.65976 3.20295 3.31317C2.99996 3.80323 2.99996 4.42448 2.99996 5.66699C2.99996 6.9095 2.99996 7.53076 3.20295 8.02082C3.4736 8.67422 3.99273 9.19335 4.64614 9.464C5.13619 9.66699 5.75745 9.66699 6.99996 9.66699Z" stroke="#E20177" stroke-width="2" stroke-linecap="round" stroke-linejoin="round"/>
</svg>
