<svg width="20" height="20" viewBox="0 0 20 20" fill="none" xmlns="http://www.w3.org/2000/svg">
<path d="M5.41667 16.6667H4.16667C3.24619 16.6667 2.5 15.9206 2.5 15.0001V3.33341C2.5 2.41294 3.24619 1.66675 4.16667 1.66675H15.8333C16.7538 1.66675 17.5 2.41294 17.5 3.33341V15.0001C17.5 15.9206 16.7538 16.6667 15.8333 16.6667H14.5833M10 15.8334C11.3807 15.8334 12.5 14.7141 12.5 13.3334C12.5 11.9527 11.3807 10.8334 10 10.8334C8.61929 10.8334 7.5 11.9527 7.5 13.3334C7.5 14.7141 8.61929 15.8334 10 15.8334ZM10 15.8334L10.0179 15.8332L7.35723 18.4939L5.0002 16.1369L7.51638 13.6207M10 15.8334L12.6607 18.4939L15.0177 16.1369L12.5015 13.6207M7.5 5.00008H12.5M5.83333 7.91675H14.1667" stroke="#333333" stroke-width="1.5" stroke-linecap="round" stroke-linejoin="round"/>
</svg>
