<svg width="30" height="27" viewBox="0 0 30 27" fill="none" xmlns="http://www.w3.org/2000/svg">
<path d="M14.9996 10.0003V15.3336M14.9996 20.667H15.013M13.1534 3.18927L2.18688 22.1314C1.5786 23.1821 1.27447 23.7074 1.31942 24.1386C1.35862 24.5146 1.55565 24.8564 1.86146 25.0787C2.21207 25.3336 2.81909 25.3336 4.03312 25.3336H25.9661C27.1802 25.3336 27.7872 25.3336 28.1378 25.0787C28.4436 24.8564 28.6406 24.5146 28.6798 24.1386C28.7248 23.7074 28.4207 23.1821 27.8124 22.1314L16.8459 3.18927C16.2398 2.14238 15.9367 1.61894 15.5414 1.44314C15.1965 1.28979 14.8028 1.28979 14.4579 1.44314C14.0625 1.61894 13.7595 2.14239 13.1534 3.18927Z" stroke="#ED1C24" stroke-width="2" stroke-linecap="round" stroke-linejoin="round"/>
</svg>
