<svg width="20" height="21" viewBox="0 0 20 21" fill="none" xmlns="http://www.w3.org/2000/svg">
<path d="M11.6663 9.66663H6.66634M8.33301 13H6.66634M13.333 6.33329H6.66634M16.6663 9.24996V6.16663C16.6663 4.76649 16.6663 4.06643 16.3939 3.53165C16.1542 3.06124 15.7717 2.67879 15.3013 2.43911C14.7665 2.16663 14.0665 2.16663 12.6663 2.16663H7.33301C5.93288 2.16663 5.23281 2.16663 4.69803 2.43911C4.22763 2.67879 3.84517 3.06124 3.60549 3.53165C3.33301 4.06643 3.33301 4.76649 3.33301 6.16663V14.8333C3.33301 16.2334 3.33301 16.9335 3.60549 17.4683C3.84517 17.9387 4.22763 18.3211 4.69803 18.5608C5.23281 18.8333 5.93288 18.8333 7.33301 18.8333H9.58301M18.333 18.8333L17.083 17.5833M17.9163 15.5C17.9163 17.1108 16.6105 18.4166 14.9997 18.4166C13.3888 18.4166 12.083 17.1108 12.083 15.5C12.083 13.8891 13.3888 12.5833 14.9997 12.5833C16.6105 12.5833 17.9163 13.8891 17.9163 15.5Z" stroke="#4F4F4F" stroke-width="1.5" stroke-linecap="round" stroke-linejoin="round"/>
</svg>
