<svg width="17" height="17" viewBox="0 0 17 17" fill="none" xmlns="http://www.w3.org/2000/svg">
<path d="M1.00006 8.5H16.0001M8.50006 1V16M5.00006 1H12.0001C13.4002 1 14.1003 1 14.635 1.27248C15.1054 1.51217 15.4879 1.89462 15.7276 2.36502C16.0001 2.8998 16.0001 3.59987 16.0001 5V12C16.0001 13.4001 16.0001 14.1002 15.7276 14.635C15.4879 15.1054 15.1054 15.4878 14.635 15.7275C14.1003 16 13.4002 16 12.0001 16H5.00006C3.59993 16 2.89986 16 2.36508 15.7275C1.89468 15.4878 1.51223 15.1054 1.27254 14.635C1.00006 14.1002 1.00006 13.4001 1.00006 12V5C1.00006 3.59987 1.00006 2.8998 1.27254 2.36502C1.51223 1.89462 1.89468 1.51217 2.36508 1.27248C2.89986 1 3.59993 1 5.00006 1Z" stroke="#525761" stroke-width="1.5" stroke-linecap="round" stroke-linejoin="round"/>
</svg>
