<svg width="40" height="40" viewBox="0 0 40 40" fill="none" xmlns="http://www.w3.org/2000/svg">
<path d="M6 14V30M15 14V30M25 14V30M34 14V30M2 33.2L2 34.8C2 35.9201 2 36.4802 2.21799 36.908C2.40973 37.2843 2.71569 37.5903 3.09202 37.7821C3.51984 38 4.07989 38 5.2 38H34.8C35.9201 38 36.4802 38 36.908 37.7821C37.2843 37.5903 37.5903 37.2843 37.782 36.908C38 36.4802 38 35.9201 38 34.8V33.2C38 32.0799 38 31.5199 37.782 31.0921C37.5903 30.7157 37.2843 30.4098 36.908 30.218C36.4802 30 35.9201 30 34.8 30H5.2C4.0799 30 3.51984 30 3.09202 30.218C2.7157 30.4098 2.40973 30.7157 2.21799 31.0921C2 31.5199 2 32.0799 2 33.2ZM19.3058 2.1543L4.50582 5.44319C3.6117 5.64188 3.16464 5.74123 2.83093 5.98165C2.53658 6.1937 2.30545 6.48183 2.1623 6.81517C2 7.19309 2 7.65106 2 8.56699L2 10.8C2 11.9201 2 12.4802 2.21799 12.908C2.40973 13.2843 2.71569 13.5903 3.09202 13.7821C3.51984 14 4.07989 14 5.2 14H34.8C35.9201 14 36.4802 14 36.908 13.7821C37.2843 13.5903 37.5903 13.2843 37.782 12.908C38 12.4802 38 11.9201 38 10.8V8.56699C38 7.65106 38 7.19309 37.8377 6.81517C37.6945 6.48183 37.4634 6.19371 37.1691 5.98165C36.8354 5.74123 36.3883 5.64189 35.4942 5.44319L20.6942 2.1543C20.4351 2.09674 20.3056 2.06795 20.1747 2.05647C20.0585 2.04628 19.9415 2.04628 19.8253 2.05647C19.6944 2.06795 19.5649 2.09674 19.3058 2.1543Z" stroke="#E20177" stroke-width="2.5" stroke-linecap="round" stroke-linejoin="round"/>
</svg>
