<svg width="32" height="32" viewBox="0 0 32 32" fill="none" xmlns="http://www.w3.org/2000/svg">
<path d="M26.6667 25.3337V21.3337H9.33333C7.12419 21.3337 5.33333 23.1245 5.33333 25.3337M11.7333 29.3337H22.4C23.8935 29.3337 24.6402 29.3337 25.2106 29.043C25.7124 28.7873 26.1203 28.3794 26.376 27.8776C26.6667 27.3072 26.6667 26.5605 26.6667 25.067V6.93366C26.6667 5.44019 26.6667 4.69345 26.376 4.12302C26.1203 3.62125 25.7124 3.2133 25.2106 2.95764C24.6402 2.66699 23.8935 2.66699 22.4 2.66699H11.7333C9.49312 2.66699 8.37301 2.66699 7.51737 3.10297C6.76472 3.48646 6.1528 4.09838 5.7693 4.85103C5.33333 5.70668 5.33333 6.82678 5.33333 9.06699V22.9337C5.33333 25.1739 5.33333 26.294 5.7693 27.1496C6.1528 27.9023 6.76472 28.5142 7.51737 28.8977C8.37301 29.3337 9.49312 29.3337 11.7333 29.3337Z" stroke="#E20177" stroke-width="2" stroke-linecap="round" stroke-linejoin="round"/>
</svg>
