<svg width="30" height="30" viewBox="0 0 81 100" fill="none" xmlns="http://www.w3.org/2000/svg">
<path d="M55.9228 89.9776H25.9303V94.9763C25.9303 96.3021 25.4036 97.5735 24.4662 98.511C23.5287 99.4484 22.2573 99.9751 20.9315 99.9751H15.9328C14.607 99.9751 13.3356 99.4484 12.3981 98.511C11.4607 97.5735 10.934 96.3021 10.934 94.9763V89.9776C8.28253 89.9776 5.73962 88.9243 3.86472 87.0494C1.98983 85.1745 0.936523 82.6316 0.936523 79.9801V9.99751C0.936523 4.49888 5.4354 0 10.934 0H70.9191C73.5706 0 76.1135 1.05331 77.9884 2.9282C79.8633 4.8031 80.9166 7.346 80.9166 9.99751V79.9801C80.9166 82.6316 79.8633 85.1745 77.9884 87.0494C76.1135 88.9243 73.5706 89.9776 70.9191 89.9776V94.9763C70.9191 96.3021 70.3924 97.5735 69.455 98.511C68.5175 99.4484 67.2461 99.9751 65.9203 99.9751H60.9216C59.5958 99.9751 58.3244 99.4484 57.3869 98.511C56.4495 97.5735 55.9228 96.3021 55.9228 94.9763V89.9776ZM10.934 24.9938V54.9863H35.9278V24.9938H10.934ZM45.9253 24.9938V54.9863H70.9191V24.9938H45.9253ZM15.9328 9.99751V14.9963H65.9203V9.99751H15.9328ZM18.4322 79.9801C20.4208 79.9801 22.328 79.1901 23.7341 77.7839C25.1403 76.3777 25.9303 74.4706 25.9303 72.4819C25.9303 70.4933 25.1403 68.5861 23.7341 67.18C22.328 65.7738 20.4208 64.9838 18.4322 64.9838C16.4435 64.9838 14.5364 65.7738 13.1302 67.18C11.724 68.5861 10.934 70.4933 10.934 72.4819C10.934 74.4706 11.724 76.3777 13.1302 77.7839C14.5364 79.1901 16.4435 79.9801 18.4322 79.9801ZM63.4209 79.9801C65.4096 79.9801 67.3168 79.1901 68.7229 77.7839C70.1291 76.3777 70.9191 74.4706 70.9191 72.4819C70.9191 70.4933 70.1291 68.5861 68.7229 67.18C67.3168 65.7738 65.4096 64.9838 63.4209 64.9838C61.4323 64.9838 59.5251 65.7738 58.119 67.18C56.7128 68.5861 55.9228 70.4933 55.9228 72.4819C55.9228 74.4706 56.7128 76.3777 58.119 77.7839C59.5251 79.1901 61.4323 79.9801 63.4209 79.9801Z" fill="#E20177"/>
</svg>
