<svg width="16" height="20" viewBox="0 0 16 20" fill="none" xmlns="http://www.w3.org/2000/svg">
<path d="M11.3333 3.33329C12.1083 3.33329 12.4958 3.33329 12.8137 3.41848C13.6764 3.64965 14.3503 4.32352 14.5815 5.18625C14.6666 5.50416 14.6666 5.89165 14.6666 6.66663V14.3333C14.6666 15.7334 14.6666 16.4335 14.3942 16.9683C14.1545 17.4387 13.772 17.8211 13.3016 18.0608C12.7668 18.3333 12.0668 18.3333 10.6666 18.3333H5.33331C3.93318 18.3333 3.23312 18.3333 2.69834 18.0608C2.22793 17.8211 1.84548 17.4387 1.6058 16.9683C1.33331 16.4335 1.33331 15.7334 1.33331 14.3333V6.66663C1.33331 5.89165 1.33331 5.50416 1.4185 5.18625C1.64967 4.32352 2.32354 3.64965 3.18627 3.41848C3.50418 3.33329 3.89167 3.33329 4.66665 3.33329M5.49998 12.5L7.16665 14.1666L10.9166 10.4166M5.99998 4.99996H9.99998C10.4667 4.99996 10.7 4.99996 10.8783 4.90913C11.0351 4.82924 11.1626 4.70175 11.2425 4.54495C11.3333 4.36669 11.3333 4.13334 11.3333 3.66663V2.99996C11.3333 2.53325 11.3333 2.29989 11.2425 2.12163C11.1626 1.96483 11.0351 1.83735 10.8783 1.75745C10.7 1.66663 10.4667 1.66663 9.99998 1.66663H5.99998C5.53327 1.66663 5.29991 1.66663 5.12165 1.75745C4.96485 1.83735 4.83737 1.96483 4.75747 2.12163C4.66665 2.29989 4.66665 2.53325 4.66665 2.99996V3.66663C4.66665 4.13334 4.66665 4.36669 4.75747 4.54495C4.83737 4.70175 4.96485 4.82924 5.12165 4.90913C5.29991 4.99996 5.53327 4.99996 5.99998 4.99996Z" stroke="#E20177" stroke-width="1.5" stroke-linecap="round" stroke-linejoin="round"/>
</svg>
