<svg width="21" height="21" viewBox="0 0 21 21" fill="none" xmlns="http://www.w3.org/2000/svg">
<path d="M3.83331 18.681C4.33546 18.8332 5.0137 18.8332 6.16663 18.8332H14.8333C15.9862 18.8332 16.6645 18.8332 17.1666 18.681M3.83331 18.681C3.72564 18.6484 3.62607 18.6088 3.53165 18.5607C3.06124 18.321 2.67879 17.9386 2.43911 17.4681C2.16663 16.9334 2.16663 16.2333 2.16663 14.8332V6.1665C2.16663 4.76637 2.16663 4.06631 2.43911 3.53153C2.67879 3.06112 3.06124 2.67867 3.53165 2.43899C4.06643 2.1665 4.76649 2.1665 6.16663 2.1665H14.8333C16.2334 2.1665 16.9335 2.1665 17.4683 2.43899C17.9387 2.67867 18.3211 3.06112 18.5608 3.53153C18.8333 4.06631 18.8333 4.76637 18.8333 6.1665V14.8332C18.8333 16.2333 18.8333 16.9334 18.5608 17.4681C18.3211 17.9386 17.9387 18.321 17.4683 18.5607C17.3738 18.6088 17.2743 18.6484 17.1666 18.681M3.83331 18.681C3.83359 18.0066 3.83763 17.6497 3.89734 17.3495C4.16036 16.0272 5.19402 14.9936 6.51633 14.7306C6.83832 14.6665 7.22553 14.6665 7.99996 14.6665H13C13.7744 14.6665 14.1616 14.6665 14.4836 14.7306C15.8059 14.9936 16.8396 16.0272 17.1026 17.3495C17.1623 17.6497 17.1663 18.0066 17.1666 18.681M13.8333 8.4165C13.8333 10.2575 12.3409 11.7498 10.5 11.7498C8.65901 11.7498 7.16663 10.2575 7.16663 8.4165C7.16663 6.57555 8.65901 5.08317 10.5 5.08317C12.3409 5.08317 13.8333 6.57555 13.8333 8.4165Z" stroke="#525761" stroke-width="1.5" stroke-linecap="round" stroke-linejoin="round"/>
</svg>
