<svg width="28" height="28" viewBox="0 0 28 28" fill="none" xmlns="http://www.w3.org/2000/svg">
<path d="M9.33325 9.33337V6.06671C9.33325 4.75992 9.33325 4.10652 9.58757 3.6074C9.81127 3.16835 10.1682 2.8114 10.6073 2.58769C11.1064 2.33337 11.7598 2.33337 13.0666 2.33337H21.9333C23.24 2.33337 23.8934 2.33337 24.3926 2.58769C24.8316 2.8114 25.1886 3.16835 25.4123 3.6074C25.6666 4.10652 25.6666 4.75992 25.6666 6.06671V14.9334C25.6666 16.2402 25.6666 16.8936 25.4123 17.3927C25.1886 17.8317 24.8316 18.1887 24.3926 18.4124C23.8934 18.6667 23.24 18.6667 21.9333 18.6667H18.6666M6.06658 25.6667H14.9333C16.24 25.6667 16.8934 25.6667 17.3926 25.4124C17.8316 25.1887 18.1886 24.8317 18.4123 24.3927C18.6666 23.8936 18.6666 23.2402 18.6666 21.9334V13.0667C18.6666 11.7599 18.6666 11.1065 18.4123 10.6074C18.1886 10.1684 17.8316 9.8114 17.3926 9.58769C16.8934 9.33337 16.24 9.33337 14.9333 9.33337H6.06659C4.7598 9.33337 4.1064 9.33337 3.60727 9.58769C3.16823 9.8114 2.81127 10.1684 2.58757 10.6074C2.33325 11.1065 2.33325 11.7599 2.33325 13.0667V21.9334C2.33325 23.2402 2.33325 23.8936 2.58757 24.3927C2.81127 24.8317 3.16823 25.1887 3.60727 25.4124C4.1064 25.6667 4.7598 25.6667 6.06658 25.6667Z" stroke="#E20177" stroke-width="2" stroke-linecap="round" stroke-linejoin="round"/>
</svg>
