<svg width="121" height="121" viewBox="0 0 121 121" fill="none"
    xmlns="http://www.w3.org/2000/svg">
    <path d="M90.0273 33.0791L101.035 22.0712L106.345 27.3811L95.3375 38.389L90.0273 33.0791Z" fill="#A7B7C6"/>
    <path d="M105.173 31.5192L96.8978 23.2439C95.5168 21.863 95.5168 19.6239 96.8978 18.243L97.2383 17.9024C98.6193 16.5215 100.858 16.5215 102.239 17.9024L110.515 26.1777C111.896 27.5586 111.896 29.7977 110.515 31.1786L110.174 31.5192C108.793 32.9001 106.554 32.9001 105.173 31.5192Z" fill="#E4E9F4"/>
    <path d="M110.344 26.0071L106.965 22.6277C108.44 24.1026 108.44 26.4942 106.965 27.9691C105.49 29.444 103.098 29.4442 101.623 27.9693L105.003 31.3488C106.478 32.8239 108.869 32.8239 110.344 31.3488C111.819 29.8736 111.819 27.4823 110.344 26.0071Z" fill="#CDD2DF"/>
    <path d="M56.2437 8.00952H63.7532V22.4028H56.2437V8.00952Z" fill="#A7B7C6"/>
    <path d="M65.8708 11.7652H54.1268C52.1852 11.7652 50.6111 10.1911 50.6111 8.24953V4.01569C50.6111 2.07409 52.1852 0.5 54.1268 0.5H65.8708C67.8124 0.5 69.3865 2.07409 69.3865 4.01569V8.24953C69.3865 10.1911 67.8127 11.7652 65.8708 11.7652Z" fill="#E4E9F4"/>
    <path d="M65.6314 0.5H58.1213C60.1951 0.5 61.8763 2.18117 61.8763 4.25492V8.00984C61.8763 10.0836 60.1951 11.7648 58.1213 11.7648H65.6314C67.7052 11.7648 69.3863 10.0836 69.3863 8.00984V4.25516C69.3863 2.18117 67.7052 0.5 65.6314 0.5Z" fill="#CDD2DF"/>
    <path d="M96.9803 105.25C117.293 84.9362 117.315 52.0242 97.0287 31.7387C76.7426 11.4533 43.8305 11.4761 23.5176 31.7897C3.20466 52.1034 3.18298 85.0154 23.4691 105.301C43.7553 125.586 76.6674 125.563 96.9803 105.25Z" fill="#FFC13F"/>
    <path d="M97.0298 31.741C85.8478 20.559 70.8297 15.5506 56.1997 16.7065C61.9861 19.468 67.4096 23.2401 72.2008 28.0313C94.8437 50.6742 94.8187 87.4104 72.1452 110.084C67.8896 114.339 63.1383 117.797 58.078 120.457C72.0831 121.02 86.2795 115.953 96.9801 105.253C117.293 84.9391 117.316 52.0268 97.0298 31.741Z" fill="#FF9416"/>
    <path d="M60.4648 110.419C83.6237 110.419 102.398 91.6452 102.398 68.4863C102.398 45.3274 83.6237 26.5535 60.4648 26.5535C37.306 26.5535 18.532 45.3274 18.532 68.4863C18.532 91.6452 37.306 110.419 60.4648 110.419Z" fill="#E4E9F4"/>
    <path d="M72.4626 28.2998C94.2309 50.3465 94.7163 85.5177 73.9369 108.207C90.486 102.595 102.396 86.9317 102.396 68.4865C102.396 49.4983 89.7735 33.4606 72.4626 28.2998Z" fill="#CDD2DF"/>
    <path d="M59.999 65.8231C59.7524 65.8231 59.5082 65.7746 59.2804 65.6802C59.0526 65.5859 58.8456 65.4476 58.6712 65.2732C58.4969 65.0988 58.3586 64.8918 58.2642 64.664C58.1699 64.4362 58.1213 64.192 58.1213 63.9455V42.9169C58.1213 42.4189 58.3192 41.9414 58.6713 41.5892C59.0234 41.2371 59.501 41.0393 59.999 41.0393C60.4969 41.0393 60.9745 41.2371 61.3266 41.5892C61.6787 41.9414 61.8766 42.4189 61.8766 42.9169V63.9455C61.8766 64.192 61.8281 64.4362 61.7337 64.664C61.6394 64.8918 61.5011 65.0988 61.3267 65.2732C61.1523 65.4476 60.9453 65.5859 60.7175 65.6802C60.4897 65.7746 60.2455 65.8231 59.999 65.8231Z" fill="#7A6CF7"/>
    <path d="M60.2492 74.1535C63.3597 74.1535 65.8812 71.6319 65.8812 68.5214C65.8812 65.411 63.3597 62.8894 60.2492 62.8894C57.1387 62.8894 54.6172 65.411 54.6172 68.5214C54.6172 71.6319 57.1387 74.1535 60.2492 74.1535Z" fill="#555E6B"/>
    <path d="M86.2051 42.3915C86.5717 42.7583 87.0522 42.9416 87.5327 42.9416C88.0131 42.9416 88.4936 42.7583 88.8602 42.3917L91.241 40.0109C90.3906 39.0915 89.4997 38.2104 88.571 37.3701L86.2049 39.7362C86.0305 39.9105 85.8922 40.1175 85.7979 40.3453C85.7035 40.5732 85.655 40.8173 85.655 41.0639C85.655 41.3105 85.7036 41.5546 85.798 41.7824C85.8924 42.0102 86.0307 42.2172 86.2051 42.3915ZM97.0138 68.2361C97.0138 68.4826 97.0623 68.7268 97.1567 68.9546C97.251 69.1824 97.3893 69.3894 97.5637 69.5638C97.738 69.7382 97.945 69.8765 98.1728 69.9708C98.4007 70.0652 98.6448 70.1137 98.8914 70.1137H102.362C102.382 69.5734 102.396 69.0315 102.396 68.4864C102.396 67.7727 102.378 67.0634 102.343 66.3584H98.8914C98.3934 66.3585 97.9159 66.5563 97.5638 66.9084C97.2117 67.2606 97.0139 67.7381 97.0138 68.2361ZM60.4644 31.937C60.711 31.937 60.9551 31.8885 61.183 31.7941C61.4108 31.6998 61.6178 31.5615 61.7921 31.3871C61.9665 31.2128 62.1048 31.0058 62.1992 30.7779C62.2935 30.5501 62.342 30.3059 62.342 30.0594V26.5985C61.7165 26.5701 61.0905 26.5555 60.4644 26.5547C59.8349 26.5547 59.2095 26.5711 58.5868 26.5985V30.0594C58.5868 30.3059 58.6353 30.5501 58.7296 30.7779C58.824 31.0058 58.9623 31.2128 59.1367 31.3871C59.311 31.5615 59.518 31.6998 59.7458 31.7941C59.9736 31.8885 60.2178 31.937 60.4644 31.937ZM22.538 70.1137C23.036 70.1137 23.5136 69.9158 23.8657 69.5637C24.2178 69.2116 24.4156 68.734 24.4156 68.2361C24.4156 67.7381 24.2178 67.2605 23.8657 66.9084C23.5136 66.5563 23.036 66.3584 22.538 66.3584H18.783C18.7165 66.3584 18.6506 66.3622 18.5857 66.369C18.5505 67.0742 18.5328 67.7802 18.5327 68.4864C18.5327 69.0271 18.5463 69.5645 18.5667 70.1001C18.6377 70.1083 18.7099 70.1134 18.7833 70.1134L22.538 70.1137ZM31.9674 99.2431C32.0557 99.1817 32.1385 99.1127 32.2149 99.037L34.8701 96.3818C35.0445 96.2074 35.1828 96.0004 35.2772 95.7726C35.3716 95.5448 35.4201 95.3007 35.4202 95.0541C35.4202 94.8075 35.3716 94.5633 35.2773 94.3355C35.1829 94.1077 35.0446 93.9007 34.8703 93.7264C34.6959 93.552 34.4889 93.4137 34.2611 93.3193C34.0333 93.2249 33.7892 93.1764 33.5426 93.1763C33.296 93.1763 33.0518 93.2249 32.824 93.3192C32.5962 93.4136 32.3892 93.5519 32.2149 93.7262L29.5596 96.3815C29.4869 96.4542 29.4236 96.5322 29.3655 96.6129C30.194 97.5272 31.0621 98.4047 31.9674 99.2431ZM91.6493 96.5156L89.0371 93.9034C88.8628 93.7291 88.6558 93.5908 88.428 93.4964C88.2002 93.4021 87.956 93.3535 87.7094 93.3535C87.4628 93.3536 87.2187 93.4021 86.9909 93.4965C86.7631 93.5909 86.5561 93.7292 86.3817 93.9035C86.2074 94.0779 86.0691 94.2849 85.9747 94.5127C85.8804 94.7405 85.8318 94.9847 85.8318 95.2313C85.8319 95.4779 85.8804 95.722 85.9748 95.9498C86.0692 96.1776 86.2075 96.3846 86.3819 96.559L89.0154 99.1924C89.9328 98.3398 90.8116 97.4467 91.6493 96.5156ZM29.7583 39.9352L32.392 42.5689C32.7586 42.9355 33.2391 43.1188 33.7196 43.1188C34.2001 43.1188 34.6805 42.9355 35.0471 42.5689C35.2215 42.3946 35.3598 42.1876 35.4542 41.9597C35.5486 41.7319 35.5971 41.4877 35.5971 41.2411C35.5971 40.9946 35.5486 40.7504 35.4542 40.5226C35.3598 40.2947 35.2215 40.0877 35.0471 39.9134L32.4352 37.3015C31.5042 38.1392 30.6111 39.018 29.7583 39.9352ZM62.3298 110.375C62.3373 110.307 62.3418 110.238 62.3418 110.168V106.413C62.3418 105.915 62.144 105.437 61.7918 105.085C61.4397 104.733 60.9621 104.535 60.4642 104.535C59.9662 104.535 59.4886 104.733 59.1365 105.085C58.7844 105.437 58.5866 105.915 58.5866 106.413V110.168C58.5866 110.238 58.591 110.307 58.5985 110.375C59.2173 110.402 59.8386 110.418 60.4642 110.418C61.0897 110.418 61.7113 110.402 62.3298 110.375Z" fill="#555E6B"/>
</svg>
