<svg width="18" height="19" viewBox="0 0 18 19" fill="none" xmlns="http://www.w3.org/2000/svg">
<path d="M1.3125 14.875C1.3125 16.0122 2.06906 16.9375 3 16.9375C3.20639 16.9335 3.40981 16.8875 3.59789 16.8024C3.78597 16.7173 3.95478 16.5949 4.09406 16.4425C4.19833 16.3397 4.33858 16.2816 4.48502 16.2805C4.63145 16.2795 4.77252 16.3356 4.87825 16.4369C4.98397 16.5382 5.04601 16.6768 5.05118 16.8231C5.05635 16.9695 5.00424 17.1121 4.90594 17.2206C4.66233 17.4833 4.36761 17.6935 4.03987 17.8383C3.71213 17.9831 3.35827 18.0594 3 18.0625C1.44937 18.0625 0.1875 16.6328 0.1875 14.875C0.1875 13.1172 1.44937 11.6875 3 11.6875C3.35841 11.6909 3.71235 11.7675 4.0401 11.9126C4.36785 12.0576 4.66249 12.2682 4.90594 12.5312C5.00424 12.6398 5.05635 12.7824 5.05118 12.9287C5.04601 13.0751 4.98397 13.2136 4.87825 13.315C4.77252 13.4163 4.63145 13.4724 4.48502 13.4714C4.33858 13.4703 4.19833 13.4122 4.09406 13.3094C3.95498 13.1566 3.78625 13.0338 3.59816 12.9484C3.41006 12.8629 3.20654 12.8167 3 12.8125C2.06906 12.8125 1.3125 13.7369 1.3125 14.875ZM8.91094 14.2403C7.89281 13.9469 7.65375 13.8006 7.69219 13.4988C7.69757 13.404 7.72473 13.3117 7.77156 13.2291C7.81838 13.1465 7.88361 13.0758 7.96219 13.0225C8.48719 12.6672 9.61781 12.8519 9.97313 12.9437C10.116 12.9779 10.2666 12.9549 10.3928 12.8794C10.5189 12.804 10.6104 12.6823 10.6479 12.5402C10.6854 12.3981 10.6658 12.247 10.5933 12.1192C10.5208 11.9914 10.4012 11.897 10.26 11.8563C10.0725 11.8066 8.37563 11.3875 7.33406 12.0887C7.12258 12.232 6.94512 12.4199 6.81423 12.6392C6.68334 12.8586 6.60221 13.104 6.57656 13.3581C6.40781 14.6884 7.72594 15.0691 8.59875 15.3212C9.735 15.6494 9.98438 15.8209 9.93 16.2362C9.92518 16.3358 9.89726 16.4329 9.84845 16.5197C9.79963 16.6066 9.73126 16.681 9.64875 16.7369C9.12281 17.0866 8.01 16.8906 7.66219 16.795C7.52287 16.7662 7.37781 16.7913 7.25623 16.8651C7.13465 16.939 7.04557 17.0562 7.00694 17.1931C6.96832 17.33 6.98301 17.4765 7.04805 17.603C7.1131 17.7296 7.22367 17.8267 7.3575 17.875C7.80663 17.9947 8.26897 18.0577 8.73375 18.0625C9.24844 18.0625 9.81563 17.9734 10.2675 17.6744C10.4848 17.5294 10.6674 17.3381 10.802 17.1143C10.9367 16.8905 11.0202 16.6396 11.0466 16.3797C11.235 14.9116 9.83625 14.5075 8.91094 14.2394V14.2403ZM16.6922 11.7203C16.6226 11.6954 16.5489 11.6845 16.4751 11.6882C16.4013 11.6918 16.3289 11.7099 16.2622 11.7415C16.1954 11.7731 16.1355 11.8176 16.0859 11.8723C16.0363 11.9271 15.998 11.9911 15.9731 12.0606L14.625 15.8266L13.2797 12.0625C13.2577 11.9897 13.2211 11.9221 13.1722 11.8638C13.1233 11.8056 13.0631 11.7578 12.9952 11.7235C12.9274 11.6891 12.8532 11.6689 12.7773 11.6641C12.7014 11.6592 12.6253 11.6698 12.5536 11.6951C12.4819 11.7205 12.4161 11.7602 12.3601 11.8117C12.3042 11.8633 12.2593 11.9256 12.2281 11.995C12.197 12.0644 12.1802 12.1394 12.1789 12.2155C12.1775 12.2915 12.1916 12.367 12.2203 12.4375L14.0953 17.6875C14.1344 17.7967 14.2062 17.8912 14.301 17.958C14.3958 18.0248 14.509 18.0607 14.625 18.0607C14.741 18.0607 14.8542 18.0248 14.949 17.958C15.0438 17.8912 15.1156 17.7967 15.1547 17.6875L17.0297 12.4375C17.0795 12.2969 17.0715 12.1422 17.0073 12.0076C16.9431 11.8729 16.8281 11.7692 16.6875 11.7194L16.6922 11.7203ZM17.0625 6.25V8.5C17.0625 8.64918 17.0032 8.79226 16.8977 8.89775C16.7923 9.00324 16.6492 9.0625 16.5 9.0625C16.3508 9.0625 16.2077 9.00324 16.1023 8.89775C15.9968 8.79226 15.9375 8.64918 15.9375 8.5V6.8125H11.25C11.1008 6.8125 10.9577 6.75324 10.8523 6.64775C10.7468 6.54226 10.6875 6.39918 10.6875 6.25V1.5625H2.25C2.20027 1.5625 2.15258 1.58225 2.11742 1.61742C2.08225 1.65258 2.0625 1.70027 2.0625 1.75V8.5C2.0625 8.64918 2.00324 8.79226 1.89775 8.89775C1.79226 9.00324 1.64918 9.0625 1.5 9.0625C1.35082 9.0625 1.20774 9.00324 1.10225 8.89775C0.996763 8.79226 0.9375 8.64918 0.9375 8.5V1.75C0.9375 1.4019 1.07578 1.06806 1.32192 0.821922C1.56806 0.575781 1.9019 0.4375 2.25 0.4375H11.25C11.3991 0.437631 11.5421 0.496981 11.6475 0.6025L16.8975 5.8525C17.003 5.95789 17.0624 6.10087 17.0625 6.25ZM15.1416 5.6875L11.8125 2.3575V5.6875H15.1416Z" fill="#05326E"/>
</svg>
