<svg width="20" height="19" viewBox="0 0 20 19" fill="none" xmlns="http://www.w3.org/2000/svg">
<path d="M4.43057 15.6986C4.93751 14.5043 6.12109 13.6666 7.50033 13.6666H12.5003C13.8796 13.6666 15.0631 14.5043 15.5701 15.6986M13.3337 7.41663C13.3337 9.25758 11.8413 10.75 10.0003 10.75C8.15938 10.75 6.66699 9.25758 6.66699 7.41663C6.66699 5.57568 8.15938 4.08329 10.0003 4.08329C11.8413 4.08329 13.3337 5.57568 13.3337 7.41663ZM18.3337 9.49996C18.3337 14.1023 14.6027 17.8333 10.0003 17.8333C5.39795 17.8333 1.66699 14.1023 1.66699 9.49996C1.66699 4.89759 5.39795 1.16663 10.0003 1.16663C14.6027 1.16663 18.3337 4.89759 18.3337 9.49996Z" stroke="#4F4F4F" stroke-width="1.5" stroke-linecap="round" stroke-linejoin="round"/>
</svg>
