<svg width="34" height="34" viewBox="0 0 34 34" fill="none" xmlns="http://www.w3.org/2000/svg">
<path d="M21.3897 1.88867C17.5737 1.88867 14.4462 4.7837 14.4462 8.31729C14.4462 9.68652 14.917 10.959 15.7142 12.005L20.5426 19.7549C21.2188 20.5753 21.6685 20.4196 22.2309 19.712L27.5563 11.297C27.6637 11.1159 27.7481 10.9237 27.8218 10.7273C28.1597 9.96254 28.3335 9.14388 28.3333 8.31729C28.3333 4.7837 25.2067 1.88867 21.3897 1.88867ZM21.3897 4.90097C23.445 4.90097 25.0797 6.4148 25.0797 8.3176C25.0797 10.2204 23.445 11.7336 21.3897 11.7336C19.3348 11.7336 17.6997 10.2201 17.6997 8.3176C17.6997 6.4148 19.3348 4.90097 21.3897 4.90097Z" fill="#333333"/>
<path fill-rule="evenodd" clip-rule="evenodd" d="M22.3459 18.1921C21.8065 18.2033 21.2657 18.2245 20.7238 18.2617L20.8074 19.4947C21.3278 19.4597 21.8492 19.4372 22.3709 19.4272L22.3459 18.1921ZM19.4712 18.3749C18.6382 18.471 17.798 18.6078 16.9673 18.8278L17.2801 20.0228C18.0349 19.8231 18.817 19.694 19.6114 19.6024L19.4712 18.3749ZM15.7236 19.2415C15.4747 19.3435 15.2337 19.4614 15.0024 19.5944L15.0015 19.5955L15 19.5959C14.6699 19.789 14.3221 20.0339 14.0381 20.3899C13.8324 20.6478 13.6641 20.9739 13.6247 21.3595L14.8478 21.4854C14.8569 21.3949 14.9069 21.2755 14.9967 21.1631C15.1414 20.9812 15.3589 20.8156 15.617 20.6645L15.6179 20.6641C15.8019 20.5586 15.9934 20.4651 16.1912 20.3841L15.7236 19.2415ZM15.0939 22.0355L14.301 22.9795C14.4889 23.1391 14.686 23.2617 14.8764 23.3642L14.8788 23.3653L14.8812 23.3667C15.513 23.7003 16.1646 23.8887 16.7686 24.0675L17.1157 22.8821C16.5119 22.7033 15.9428 22.5308 15.4549 22.2736C15.3152 22.1983 15.1928 22.1196 15.0939 22.0355ZM18.2951 23.2155L17.9562 24.4029L18.1165 24.4493L18.3134 24.5077C18.9649 24.7045 19.5891 24.9147 20.147 25.2056L20.713 24.1089C20.0385 23.757 19.3382 23.5269 18.6634 23.3232L18.6615 23.3228L18.4593 23.2628L18.2951 23.2155ZM21.8641 24.9319L20.9944 25.8056C21.1999 26.0122 21.3538 26.2608 21.4287 26.5175L21.4291 26.5189L21.4296 26.5209C21.5189 26.8207 21.5192 27.1733 21.4493 27.5295L22.6554 27.7684C22.7538 27.2656 22.7697 26.7135 22.6079 26.1685C22.4669 25.6866 22.1981 25.268 21.8641 24.9319ZM21.0282 28.274C20.8953 28.4043 20.7485 28.5217 20.5899 28.6243C20.1578 28.9065 19.656 29.1192 19.1236 29.302L19.5206 30.4708C20.103 30.2709 20.701 30.0257 21.2599 29.6606L21.2613 29.6595C21.4909 29.5103 21.7039 29.339 21.8956 29.1493L21.0282 28.274ZM17.9938 29.6312C17.2225 29.8238 16.4342 29.9704 15.6362 30.0948L15.8244 31.316C16.6457 31.1879 17.4703 31.0347 18.2898 30.8301L17.9938 29.6312ZM14.4356 30.2633C13.6324 30.3652 12.8248 30.4483 12.0148 30.5192L12.121 31.75C12.9434 31.6782 13.7673 31.5938 14.59 31.4892L14.4356 30.2633ZM10.7975 30.6161C9.98584 30.6759 9.17226 30.7245 8.35797 30.7655L8.41943 31.9994C9.24164 31.9582 10.0646 31.9089 10.8873 31.8483L10.7975 30.6161ZM7.13437 30.8212C6.64632 30.8424 6.15707 30.8598 5.66663 30.8758L5.70696 32.1109C6.20047 32.0951 6.69389 32.0769 7.18718 32.0561L7.13437 30.8212Z" fill="#333333"/>
</svg>
