<svg width="24" height="24" viewBox="0 0 24 24" fill="none" xmlns="http://www.w3.org/2000/svg">
<path d="M15.0987 1.33325C12.405 1.33325 10.1973 3.3768 10.1973 5.8711C10.1973 6.83761 10.5297 7.73587 11.0924 8.47419L14.5007 13.9447C14.978 14.5238 15.2954 14.4139 15.6924 13.9144L19.4515 7.97446C19.5274 7.8466 19.5869 7.71094 19.6389 7.57225C19.8775 7.03245 20.0001 6.45457 20 5.8711C20 3.3768 17.793 1.33325 15.0987 1.33325ZM15.0987 3.45958C16.5495 3.45958 17.7034 4.52817 17.7034 5.87132C17.7034 7.21447 16.5495 8.28262 15.0987 8.28262C13.6481 8.28262 12.494 7.21425 12.494 5.87132C12.494 4.52817 13.6481 3.45958 15.0987 3.45958Z" fill="#333333"/>
<path fill-rule="evenodd" clip-rule="evenodd" d="M15.7736 12.8416C15.3929 12.8494 15.0111 12.8644 14.6286 12.8907L14.6876 13.7611C15.055 13.7364 15.423 13.7205 15.7913 13.7134L15.7736 12.8416ZM13.7444 12.9706C13.1564 13.0384 12.5633 13.135 11.977 13.2903L12.1978 14.1338C12.7305 13.9928 13.2826 13.9017 13.8434 13.8371L13.7444 12.9706ZM11.099 13.5823C10.9233 13.6543 10.7533 13.7376 10.59 13.8314L10.5893 13.8322L10.5883 13.8325C10.3553 13.9688 10.1097 14.1417 9.90927 14.3929C9.76405 14.575 9.64526 14.8052 9.61747 15.0774L10.4808 15.1663C10.4873 15.1024 10.5225 15.018 10.5859 14.9387C10.6881 14.8104 10.8416 14.6935 11.0238 14.5868L11.0245 14.5865C11.1543 14.5121 11.2895 14.446 11.4291 14.3888L11.099 13.5823ZM10.6545 15.5546L10.0948 16.2209C10.2275 16.3336 10.3666 16.4201 10.501 16.4925L10.5027 16.4933L10.5044 16.4942C10.9504 16.7297 11.4103 16.8627 11.8367 16.9889L12.0817 16.1521C11.6555 16.026 11.2537 15.9042 10.9094 15.7226C10.8108 15.6694 10.7244 15.6139 10.6545 15.5546ZM12.9142 16.3875L12.675 17.2257L12.7882 17.2584L12.9271 17.2996C13.387 17.4385 13.8276 17.5869 14.2214 17.7922L14.621 17.0181C14.1448 16.7697 13.6505 16.6073 13.1742 16.4635L13.1728 16.4632L13.0301 16.4209L12.9142 16.3875ZM15.4335 17.599L14.8196 18.2158C14.9647 18.3616 15.0733 18.5371 15.1261 18.7183L15.1265 18.7193L15.1268 18.7207C15.1899 18.9323 15.19 19.1812 15.1407 19.4326L15.9921 19.6013C16.0615 19.2464 16.0727 18.8566 15.9585 18.4719C15.859 18.1318 15.6693 17.8363 15.4335 17.599ZM14.8435 19.9582C14.7497 20.0502 14.646 20.133 14.5341 20.2055C14.229 20.4047 13.8749 20.5548 13.499 20.6838L13.7793 21.5089C14.1904 21.3678 14.6125 21.1947 15.007 20.937L15.008 20.9362C15.17 20.8308 15.3204 20.7099 15.4557 20.576L14.8435 19.9582ZM12.7016 20.9162C12.1571 21.0521 11.6006 21.1557 11.0373 21.2435L11.1702 22.1055C11.7499 22.015 12.332 21.907 12.9105 21.7625L12.7016 20.9162ZM10.1899 21.3624C9.62289 21.4343 9.05284 21.493 8.4811 21.543L8.556 22.4119C9.13655 22.3612 9.71813 22.3016 10.2989 22.2278L10.1899 21.3624ZM7.62178 21.6115C7.04885 21.6536 6.47457 21.6879 5.89977 21.7169L5.94315 22.5879C6.52354 22.5588 7.10444 22.524 7.68516 22.4812L7.62178 21.6115ZM5.03605 21.7562C4.69155 21.7712 4.3462 21.7834 4 21.7948L4.02847 22.6666C4.37683 22.6555 4.72513 22.6426 5.07333 22.6279L5.03605 21.7562Z" fill="#333333"/>
</svg>
