<svg width="18" height="15" viewBox="0 0 18 15" fill="none" xmlns="http://www.w3.org/2000/svg">
<path d="M1.01677 8.09464C0.90328 7.91494 0.846535 7.82509 0.81477 7.68651C0.79091 7.58241 0.79091 7.41824 0.81477 7.31415C0.846535 7.17556 0.90328 7.08571 1.01677 6.90601C1.95461 5.42103 4.74617 1.66699 9.00034 1.66699C13.2545 1.66699 16.0461 5.42103 16.9839 6.90601C17.0974 7.08571 17.1541 7.17556 17.1859 7.31415C17.2098 7.41824 17.2098 7.58241 17.1859 7.68651C17.1541 7.82509 17.0974 7.91494 16.9839 8.09464C16.0461 9.57962 13.2545 13.3337 9.00034 13.3337C4.74617 13.3337 1.95461 9.57963 1.01677 8.09464Z" stroke="#E20177" stroke-width="1.5" stroke-linecap="round" stroke-linejoin="round"/>
<path d="M9.00034 10.0003C10.381 10.0003 11.5003 8.88104 11.5003 7.50033C11.5003 6.11961 10.381 5.00033 9.00034 5.00033C7.61962 5.00033 6.50034 6.11961 6.50034 7.50033C6.50034 8.88104 7.61962 10.0003 9.00034 10.0003Z" stroke="#E20177" stroke-width="1.5" stroke-linecap="round" stroke-linejoin="round"/>
</svg>
