<svg width="20" height="21" viewBox="0 0 20 21" fill="none" xmlns="http://www.w3.org/2000/svg">
<path d="M7.49967 10.0834L9.16634 11.7501L12.9163 8.00006M16.6663 10.5001C16.6663 14.5904 12.2047 17.5654 10.5813 18.5125C10.3968 18.6201 10.3046 18.6739 10.1744 18.7018C10.0734 18.7235 9.92597 18.7235 9.82494 18.7018C9.69475 18.6739 9.60251 18.6201 9.41802 18.5125C7.79464 17.5654 3.33301 14.5904 3.33301 10.5001V6.51472C3.33301 5.84846 3.33301 5.51533 3.44197 5.22898C3.53824 4.97601 3.69466 4.75029 3.89772 4.57133C4.12759 4.36875 4.43951 4.25178 5.06334 4.01785L9.53151 2.34228C9.70476 2.27732 9.79138 2.24483 9.88049 2.23196C9.95954 2.22053 10.0398 2.22053 10.1189 2.23196C10.208 2.24483 10.2946 2.27732 10.4678 2.34228L14.936 4.01785C15.5598 4.25178 15.8718 4.36875 16.1016 4.57133C16.3047 4.75029 16.4611 4.97601 16.5574 5.22898C16.6663 5.51533 16.6663 5.84846 16.6663 6.51472V10.5001Z" stroke="#4F4F4F" stroke-width="1.5" stroke-linecap="round" stroke-linejoin="round"/>
</svg>
