<svg width="60" height="60" viewBox="0 0 60 60" fill="none" xmlns="http://www.w3.org/2000/svg">
<path d="M38.8913 31.0391V28.9654C38.8913 25.8641 37.3088 24.3379 35.19 24.3379C33.045 24.3379 31.4775 25.8641 31.4775 28.9654V31.0391C31.4775 34.1516 33.045 35.6779 35.19 35.6779C37.3088 35.6779 38.8913 34.1479 38.8913 31.0391ZM48.5888 30.1391C50.325 30.1391 51.345 29.1191 51.345 27.3491C51.345 25.5791 50.325 24.5704 48.5888 24.5704H45.6863V30.1391H48.5888Z" fill="#ED1C24"/>
<path d="M18.3488 0C17.8524 0.000105446 17.3764 0.196991 17.025 0.5475L0.5475 17.025C0.196991 17.3764 0.000105446 17.8524 0 18.3488L0 41.6513C0.000105446 42.1476 0.196991 42.6236 0.5475 42.975L17.025 59.4525C17.3764 59.803 17.8524 59.9999 18.3488 60H41.6513C42.1476 59.9999 42.6236 59.803 42.975 59.4525L59.4525 42.975C59.803 42.6236 59.9999 42.1476 60 41.6513V18.3488C59.9999 17.8524 59.803 17.3764 59.4525 17.025L42.975 0.5475C42.6236 0.196991 42.1476 0.000105446 41.6513 0L18.3488 0ZM11.85 37.8C8.35875 37.8 6.42375 35.9512 6.2475 33.555H8.69625C8.94 34.8525 10.1813 35.7412 12.0375 35.7412C14.0025 35.7412 15.15 34.8188 15.15 33.4163C15.15 32.28 14.3888 31.665 12.7613 31.2712L10.3012 30.6562C8.01375 30.105 6.63375 28.7437 6.63375 26.6138C6.63375 23.9663 8.8725 22.1737 12.0487 22.1737C15.2475 22.1737 17.2463 23.955 17.4338 26.25H15.015C14.775 25.05 13.695 24.2175 12.0262 24.2175C10.2563 24.2175 9.13875 25.14 9.13875 26.4675C9.13875 27.4463 9.87375 28.1062 11.2125 28.425L13.665 29.0288C16.1887 29.6438 17.64 30.855 17.64 33.1912C17.64 35.9512 15.4875 37.8 11.85 37.8ZM24.7013 24.6375V37.5H22.2075V24.6375H17.8237V22.5H29.0962V24.63H24.7013V24.6375ZM41.4188 28.9875V31.0275C41.4188 35.2687 39.0337 37.7963 35.19 37.7963C31.3425 37.7963 28.95 35.2687 28.95 31.0275V28.9875C28.95 24.7275 31.3425 22.2113 35.19 22.2113C39.0375 22.2113 41.415 24.7388 41.415 28.9875H41.4188ZM43.2 22.5H48.9563C52.0312 22.5 53.8913 24.5625 53.8913 27.345C53.8913 30.1462 52.0125 32.1788 48.9375 32.1788H45.6938V37.5H43.2V22.5Z" fill="#ED1C24"/>
</svg>
