<svg width="25" height="25" viewBox="0 0 25 25" fill="none" xmlns="http://www.w3.org/2000/svg">
<path d="M9.5 21.5002V14.1002C9.5 13.5402 9.5 13.2601 9.60899 13.0462C9.70487 12.8581 9.85785 12.7051 10.046 12.6092C10.2599 12.5002 10.5399 12.5002 11.1 12.5002H13.9C14.4601 12.5002 14.7401 12.5002 14.954 12.6092C15.1422 12.7051 15.2951 12.8581 15.391 13.0462C15.5 13.2601 15.5 13.5402 15.5 14.1002V21.5002M11.5177 3.26424L4.73539 8.53937C4.28202 8.89199 4.05534 9.0683 3.89203 9.2891C3.74737 9.48469 3.6396 9.70503 3.57403 9.9393C3.5 10.2038 3.5 10.4909 3.5 11.0653V18.3002C3.5 19.4203 3.5 19.9804 3.71799 20.4082C3.90973 20.7845 4.21569 21.0905 4.59202 21.2822C5.01984 21.5002 5.57989 21.5002 6.7 21.5002H18.3C19.4201 21.5002 19.9802 21.5002 20.408 21.2822C20.7843 21.0905 21.0903 20.7845 21.282 20.4082C21.5 19.9804 21.5 19.4203 21.5 18.3002V11.0653C21.5 10.4909 21.5 10.2038 21.426 9.9393C21.3604 9.70503 21.2526 9.48469 21.108 9.2891C20.9447 9.0683 20.718 8.89199 20.2646 8.53937L13.4823 3.26424C13.131 2.99099 12.9553 2.85436 12.7613 2.80184C12.5902 2.7555 12.4098 2.7555 12.2387 2.80184C12.0447 2.85436 11.869 2.99099 11.5177 3.26424Z" stroke="#E20177" stroke-width="2" stroke-linecap="round" stroke-linejoin="round"/>
</svg>
