<svg width="60" height="70" viewBox="0 0 60 70" fill="none" xmlns="http://www.w3.org/2000/svg">
<path d="M59.3132 12.8822L42.0288 22.2391V3.52539H59.3132V12.8822ZM59.3132 34.5984L42.0288 43.9553V25.2416H59.3132V34.5984ZM59.3132 57.1182L42.0288 66.475V47.7613H59.3132V57.1182Z" fill="#333940"/>
<path d="M0.687012 12.8822L17.9714 22.2391V3.52539H0.687012V12.8822ZM0.687012 34.5984L17.9714 43.9553V25.2416H0.687012V34.5984ZM0.687012 57.1182L17.9714 66.475V47.7613H0.687012V57.1182Z" fill="#353D44"/>
<path d="M13.4888 0.0390625H46.5112V69.1574H13.4888V0.0390625Z" fill="#555A66"/>
<path d="M13.4888 0.0390625H46.5112V69.1574H13.4888V0.0390625Z" fill="#555A66"/>
<path d="M29.9814 0.0390625H46.5113V69.1574H29.9814V0.0390625Z" fill="#353D44"/>
<path d="M29.9999 22.2391C35.1675 22.2391 39.3567 18.0499 39.3567 12.8822C39.3567 7.71459 35.1675 3.52539 29.9999 3.52539C24.8323 3.52539 20.6431 7.71459 20.6431 12.8822C20.6431 18.0499 24.8323 22.2391 29.9999 22.2391Z" fill="#FF641A"/>
<path d="M30 3.52539L29.9814 3.52578V22.2387L30 22.2391C35.1676 22.2391 39.3568 18.0498 39.3568 12.8822C39.3568 7.71445 35.1676 3.52539 30 3.52539Z" fill="#F03800"/>
<path d="M29.9999 44.3563C35.1675 44.3563 39.3567 40.1671 39.3567 34.9994C39.3567 29.8318 35.1675 25.6426 29.9999 25.6426C24.8323 25.6426 20.6431 29.8318 20.6431 34.9994C20.6431 40.1671 24.8323 44.3563 29.9999 44.3563Z" fill="#353D44"/>
<path d="M30 25.6426L29.9814 25.643V44.3559L30 44.3563C35.1676 44.3563 39.3568 40.167 39.3568 34.9994C39.3568 29.8318 35.1676 25.6426 30 25.6426Z" fill="#555A66"/>
<path d="M29.9999 66.8563C35.1675 66.8563 39.3567 62.6671 39.3567 57.4994C39.3567 52.3318 35.1675 48.1426 29.9999 48.1426C24.8323 48.1426 20.6431 52.3318 20.6431 57.4994C20.6431 62.6671 24.8323 66.8563 29.9999 66.8563Z" fill="#353D44"/>
<path d="M30 48.1426L29.9814 48.143V66.8559L30 66.8563C35.1676 66.8563 39.3568 62.667 39.3568 57.4994C39.3568 52.3318 35.1676 48.1426 30 48.1426Z" fill="#555A66"/>
</svg>
