<svg width="20" height="21" viewBox="0 0 20 21" fill="none" xmlns="http://www.w3.org/2000/svg">
<path d="M3.33329 15.4998V15.3332C3.33329 13.933 3.33329 13.233 3.60578 12.6982C3.84546 12.2278 4.22791 11.8453 4.69832 11.6057C5.2331 11.3332 5.93316 11.3332 7.33329 11.3332H12.6666C14.0668 11.3332 14.7668 11.3332 15.3016 11.6057C15.772 11.8453 16.1545 12.2278 16.3941 12.6982C16.6666 13.233 16.6666 13.933 16.6666 15.3332V15.4998M3.33329 15.4998C2.41282 15.4998 1.66663 16.246 1.66663 17.1665C1.66663 18.087 2.41282 18.8332 3.33329 18.8332C4.25377 18.8332 4.99996 18.087 4.99996 17.1665C4.99996 16.246 4.25377 15.4998 3.33329 15.4998ZM16.6666 15.4998C15.7462 15.4998 15 16.246 15 17.1665C15 18.087 15.7462 18.8332 16.6666 18.8332C17.5871 18.8332 18.3333 18.087 18.3333 17.1665C18.3333 16.246 17.5871 15.4998 16.6666 15.4998ZM9.99996 15.4998C9.07949 15.4998 8.33329 16.246 8.33329 17.1665C8.33329 18.087 9.07949 18.8332 9.99996 18.8332C10.9204 18.8332 11.6666 18.087 11.6666 17.1665C11.6666 16.246 10.9204 15.4998 9.99996 15.4998ZM9.99996 15.4998V7.1665M4.99996 7.1665H15C15.7765 7.1665 16.1648 7.1665 16.4711 7.03964C16.8795 6.87048 17.2039 6.54602 17.3731 6.13764C17.5 5.83136 17.5 5.44307 17.5 4.6665C17.5 3.88993 17.5 3.50165 17.3731 3.19536C17.2039 2.78698 16.8795 2.46253 16.4711 2.29337C16.1648 2.1665 15.7765 2.1665 15 2.1665H4.99996C4.22339 2.1665 3.83511 2.1665 3.52882 2.29337C3.12044 2.46253 2.79598 2.78698 2.62683 3.19536C2.49996 3.50165 2.49996 3.88993 2.49996 4.6665C2.49996 5.44307 2.49996 5.83136 2.62683 6.13764C2.79598 6.54602 3.12044 6.87048 3.52882 7.03964C3.83511 7.1665 4.22339 7.1665 4.99996 7.1665Z" stroke="#525761" stroke-width="1.5" stroke-linecap="round" stroke-linejoin="round"/>
</svg>
