<svg width="20" height="21" viewBox="0 0 20 21" fill="none" xmlns="http://www.w3.org/2000/svg">
<path d="M9.58366 4.66663H9.94566C12.485 4.66663 13.7547 4.66663 14.2367 5.1227C14.6533 5.51693 14.8379 6.09769 14.7255 6.66014C14.5953 7.31081 13.5587 8.04401 11.4856 9.5104L8.09843 11.9062C6.02525 13.3726 4.98865 14.1058 4.85852 14.7565C4.74604 15.3189 4.93067 15.8997 5.34729 16.2939C5.82927 16.75 7.09896 16.75 9.63833 16.75H10.417M6.66699 4.66663C6.66699 6.04734 5.5477 7.16663 4.16699 7.16663C2.78628 7.16663 1.66699 6.04734 1.66699 4.66663C1.66699 3.28591 2.78628 2.16663 4.16699 2.16663C5.5477 2.16663 6.66699 3.28591 6.66699 4.66663ZM18.3337 16.3333C18.3337 17.714 17.2144 18.8333 15.8337 18.8333C14.4529 18.8333 13.3337 17.714 13.3337 16.3333C13.3337 14.9526 14.4529 13.8333 15.8337 13.8333C17.2144 13.8333 18.3337 14.9526 18.3337 16.3333Z" stroke="#4F4F4F" stroke-width="1.5" stroke-linecap="round" stroke-linejoin="round"/>
</svg>
