<svg width="20" height="20" viewBox="0 0 20 20" fill="none" xmlns="http://www.w3.org/2000/svg">
<path d="M7.91659 18.3333H12.0833M6.66659 1.66663H13.3333M9.99992 4.16663V1.66663M3.33325 9.99996H16.6666M14.1666 15.8333L15.4166 18.3333M5.83325 15.8333L4.58325 18.3333M7.08325 12.9166H7.09159M12.9166 12.9166H12.9249M7.33325 15.8333H12.6666C14.0667 15.8333 14.7668 15.8333 15.3016 15.5608C15.772 15.3211 16.1544 14.9387 16.3941 14.4683C16.6666 13.9335 16.6666 13.2334 16.6666 11.8333V8.16663C16.6666 6.7665 16.6666 6.06643 16.3941 5.53165C16.1544 5.06124 15.772 4.67879 15.3016 4.43911C14.7668 4.16663 14.0667 4.16663 12.6666 4.16663H7.33325C5.93312 4.16663 5.23306 4.16663 4.69828 4.43911C4.22787 4.67879 3.84542 5.06124 3.60574 5.53165C3.33325 6.06643 3.33325 6.7665 3.33325 8.16663V11.8333C3.33325 13.2334 3.33325 13.9335 3.60574 14.4683C3.84542 14.9387 4.22787 15.3211 4.69828 15.5608C5.23306 15.8333 5.93312 15.8333 7.33325 15.8333ZM7.49992 12.9166C7.49992 13.1467 7.31337 13.3333 7.08325 13.3333C6.85313 13.3333 6.66659 13.1467 6.66659 12.9166C6.66659 12.6865 6.85313 12.5 7.08325 12.5C7.31337 12.5 7.49992 12.6865 7.49992 12.9166ZM13.3333 12.9166C13.3333 13.1467 13.1467 13.3333 12.9166 13.3333C12.6865 13.3333 12.4999 13.1467 12.4999 12.9166C12.4999 12.6865 12.6865 12.5 12.9166 12.5C13.1467 12.5 13.3333 12.6865 13.3333 12.9166Z" stroke="#333333" stroke-width="1.5" stroke-linecap="round" stroke-linejoin="round"/>
</svg>
