<svg width="26" height="26" viewBox="0 0 26 26" fill="none" xmlns="http://www.w3.org/2000/svg">
<path d="M4.83333 15.6674C2.67341 16.6203 1.33333 17.948 1.33333 19.4167C1.33333 22.3162 6.55667 24.6667 13 24.6667C19.4433 24.6667 24.6667 22.3162 24.6667 19.4167C24.6667 17.948 23.3266 16.6203 21.1667 15.6674M20 8.33334C20 13.0743 14.75 15.3333 13 18.8333C11.25 15.3333 5.99999 13.0743 5.99999 8.33334C5.99999 4.46735 9.134 1.33334 13 1.33334C16.866 1.33334 20 4.46735 20 8.33334ZM14.1667 8.33334C14.1667 8.97768 13.6443 9.50001 13 9.50001C12.3557 9.50001 11.8333 8.97768 11.8333 8.33334C11.8333 7.68901 12.3557 7.16668 13 7.16668C13.6443 7.16668 14.1667 7.68901 14.1667 8.33334Z" stroke="white" stroke-width="2" stroke-linecap="round" stroke-linejoin="round"/>
</svg>
