<svg width="20" height="21" viewBox="0 0 20 21" fill="none" xmlns="http://www.w3.org/2000/svg">
<path d="M10 11.3334C10.4603 11.3334 10.8334 10.9603 10.8334 10.5C10.8334 10.0398 10.4603 9.66671 10 9.66671C9.53978 9.66671 9.16669 10.0398 9.16669 10.5C9.16669 10.9603 9.53978 11.3334 10 11.3334Z" stroke="#E20177" stroke-width="1.5" stroke-linecap="round" stroke-linejoin="round"/>
<path d="M10 5.50004C10.4603 5.50004 10.8334 5.12694 10.8334 4.66671C10.8334 4.20647 10.4603 3.83337 10 3.83337C9.53978 3.83337 9.16669 4.20647 9.16669 4.66671C9.16669 5.12694 9.53978 5.50004 10 5.50004Z" stroke="#E20177" stroke-width="1.5" stroke-linecap="round" stroke-linejoin="round"/>
<path d="M10 17.1667C10.4603 17.1667 10.8334 16.7936 10.8334 16.3334C10.8334 15.8731 10.4603 15.5 10 15.5C9.53978 15.5 9.16669 15.8731 9.16669 16.3334C9.16669 16.7936 9.53978 17.1667 10 17.1667Z" stroke="#E20177" stroke-width="1.5" stroke-linecap="round" stroke-linejoin="round"/>
</svg>
