<svg width="30" height="30" viewBox="0 0 118 92" fill="none" xmlns="http://www.w3.org/2000/svg">
<path d="M37.7213 87.959H2.7671C1.69458 87.959 0.825195 88.8128 0.825195 89.8662C0.825195 90.9195 1.69458 91.7734 2.7671 91.7734H115.397C116.47 91.7734 117.339 90.9195 117.339 89.8662C117.339 88.8128 116.47 87.959 115.397 87.959H37.7213ZM117.282 55.078L111.456 32.1914C111.351 31.778 111.109 31.4108 110.768 31.1483C110.426 30.8857 110.005 30.7428 109.572 30.7423H77.7639L74.4044 24.1623C74.245 23.8462 73.9984 23.5802 73.6928 23.3948C73.3872 23.2094 73.0347 23.1119 72.6755 23.1134H63.7816L72.1127 14.9318C72.4765 14.5715 72.6806 14.0846 72.6806 13.5772C72.6806 13.0699 72.4765 12.583 72.1127 12.2227L63.7814 4.04113H99.8621C100.935 4.04113 101.804 3.18727 101.804 2.13391C101.804 1.08055 100.935 0.226685 99.8621 0.226685H18.3023C17.2298 0.226685 16.3604 1.08055 16.3604 2.13391C16.3604 3.18727 17.2298 4.04113 18.3023 4.04113H54.3828L46.0517 12.2227C45.6879 12.583 45.4838 13.0699 45.4838 13.5772C45.4838 14.0846 45.6879 14.5715 46.0517 14.9318L54.383 23.1134H45.4889C45.1297 23.1119 44.7773 23.2094 44.4717 23.3949C44.1661 23.5803 43.9196 23.8462 43.7602 24.1623L40.4209 30.7423H8.5928C8.15915 30.7428 7.73813 30.8857 7.39671 31.1483C7.05528 31.4108 6.81306 31.778 6.70857 32.1914L0.88287 55.078C0.844721 55.2279 0.825352 55.3817 0.825195 55.5362L0.825195 78.4228C0.825195 79.4762 1.69458 80.3301 2.7671 80.3301H10.5347C10.5347 84.5431 14.0126 87.959 18.3023 87.959C22.592 87.959 26.0699 84.5431 26.0699 80.3301H29.9537C29.9537 84.5431 33.4316 87.959 37.7213 87.959C42.011 87.959 45.4889 84.5431 45.4889 80.3301H72.6755C72.6755 84.5431 76.1534 87.959 80.4431 87.959C84.7328 87.959 88.2107 84.5431 88.2107 80.3301H92.0945C92.0945 84.5431 95.5724 87.959 99.8621 87.959C104.152 87.959 107.63 84.5431 107.63 80.3301H115.397C116.47 80.3301 117.339 79.4762 117.339 78.4228V55.5362C117.339 55.3811 117.319 55.2278 117.282 55.078ZM18.3023 84.1445C16.1602 84.1378 14.4253 82.4339 14.4185 80.3301H22.1861C22.1793 82.4339 20.4444 84.1378 18.3023 84.1445ZM22.1861 55.5362C22.1861 56.5895 21.3167 57.4434 20.2442 57.4434H6.6509C6.35607 57.4448 6.06476 57.3804 5.79904 57.2549C5.53333 57.1295 5.30015 56.9463 5.11718 56.7192C4.93831 56.4884 4.81405 56.2213 4.75341 55.9375C4.69278 55.6536 4.69731 55.36 4.76667 55.078L8.65047 39.8203C8.75496 39.4069 8.99718 39.0397 9.33861 38.7772C9.68003 38.5146 10.101 38.3717 10.5347 38.3711H20.2442C21.3167 38.3711 22.1861 39.225 22.1861 40.2784V55.5362ZM37.7213 84.1445C35.5792 84.1378 33.8443 82.4339 33.8375 80.3301H41.6051C41.5983 82.4339 39.8634 84.1378 37.7213 84.1445ZM45.4889 55.5362C45.4889 56.5895 44.6195 57.4434 43.547 57.4434H28.0118C26.9393 57.4434 26.0699 56.5895 26.0699 55.5362V40.2784C26.0699 39.225 26.9393 38.3711 28.0118 38.3711H43.547C44.6195 38.3711 45.4889 39.225 45.4889 40.2784V55.5362ZM50.1693 13.5772L59.0822 4.82347L67.9951 13.5772L59.0822 22.331L50.1693 13.5772ZM68.7917 76.5156H49.3727V40.2784C49.3727 39.225 50.2421 38.3711 51.3146 38.3711H66.8498C67.9223 38.3711 68.7917 39.225 68.7917 40.2784V76.5156ZM80.4431 84.1445C78.301 84.1378 76.5661 82.4339 76.5593 80.3301H84.3269C84.3201 82.4339 82.5852 84.1378 80.4431 84.1445ZM92.0945 55.5362C92.0945 56.5895 91.2251 57.4434 90.1526 57.4434H74.6174C73.5449 57.4434 72.6755 56.5895 72.6755 55.5362V40.2784C72.6755 39.225 73.5449 38.3711 74.6174 38.3711H90.1526C91.2251 38.3711 92.0945 39.225 92.0945 40.2784V55.5362ZM99.8621 84.1445C97.72 84.1378 95.9851 82.4339 95.9783 80.3301H103.746C103.739 82.4339 102.004 84.1378 99.8621 84.1445ZM113.047 56.7192C112.864 56.9463 112.631 57.1295 112.365 57.2549C112.1 57.3804 111.808 57.4448 111.513 57.4434H97.9202C96.8477 57.4434 95.9783 56.5895 95.9783 55.5362V40.2784C95.9783 39.225 96.8477 38.3711 97.9202 38.3711H107.63C108.063 38.3717 108.484 38.5146 108.826 38.7772C109.167 39.0397 109.409 39.4069 109.514 39.8203L113.398 55.078C113.467 55.36 113.472 55.6536 113.411 55.9375C113.35 56.2213 113.226 56.4884 113.047 56.7192Z" fill="#E20177"/>
</svg>
