<svg width="30" height="36" viewBox="0 0 30 36" fill="none" xmlns="http://www.w3.org/2000/svg">
<path d="M18.3337 16.3334H8.33366M11.667 23H8.33366M21.667 9.66671H8.33366M28.3337 9.33337V26.6667C28.3337 29.467 28.3337 30.8671 27.7887 31.9367C27.3093 32.8775 26.5444 33.6424 25.6036 34.1217C24.5341 34.6667 23.1339 34.6667 20.3337 34.6667H9.66699C6.86673 34.6667 5.4666 34.6667 4.39704 34.1217C3.45623 33.6424 2.69133 32.8775 2.21196 31.9367C1.66699 30.8671 1.66699 29.467 1.66699 26.6667V9.33337C1.66699 6.53311 1.66699 5.13298 2.21196 4.06342C2.69133 3.12261 3.45623 2.35771 4.39704 1.87834C5.4666 1.33337 6.86673 1.33337 9.66699 1.33337H20.3337C23.1339 1.33337 24.5341 1.33337 25.6036 1.87834C26.5444 2.35771 27.3093 3.12261 27.7887 4.06342C28.3337 5.13298 28.3337 6.53311 28.3337 9.33337Z" stroke="#E20177" stroke-width="2.5" stroke-linecap="round" stroke-linejoin="round"/>
</svg>
