<svg width="16" height="19" viewBox="0 0 16 19" fill="none" xmlns="http://www.w3.org/2000/svg">
<path d="M9.66634 1.39124V4.83335C9.66634 5.30006 9.66634 5.53342 9.75717 5.71168C9.83706 5.86848 9.96455 5.99596 10.1213 6.07586C10.2996 6.16669 10.533 6.16669 10.9997 6.16669H14.4418M11.333 10.3333H4.66634M11.333 13.6666H4.66634M6.33301 6.99996H4.66634M9.66634 1.16663H5.33301C3.93288 1.16663 3.23281 1.16663 2.69803 1.43911C2.22763 1.67879 1.84517 2.06124 1.60549 2.53165C1.33301 3.06643 1.33301 3.76649 1.33301 5.16663V13.8333C1.33301 15.2334 1.33301 15.9335 1.60549 16.4683C1.84517 16.9387 2.22763 17.3211 2.69803 17.5608C3.23281 17.8333 3.93288 17.8333 5.33301 17.8333H10.6663C12.0665 17.8333 12.7665 17.8333 13.3013 17.5608C13.7717 17.3211 14.1542 16.9387 14.3939 16.4683C14.6663 15.9335 14.6663 15.2334 14.6663 13.8333V6.16663L9.66634 1.16663Z" stroke="#4F4F4F" stroke-width="1.5" stroke-linecap="round" stroke-linejoin="round"/>
</svg>
