<svg width="34" height="34" viewBox="0 0 34 34" fill="none" xmlns="http://www.w3.org/2000/svg">
<path d="M8.70458 5.66699C4.69936 5.66699 1.41667 8.91539 1.41667 12.8803C1.41667 14.4167 1.91086 15.8445 2.74758 17.0181L7.81546 25.714C8.52516 26.6345 8.99714 26.4598 9.58746 25.6658L15.1769 16.2238C15.2897 16.0205 15.3782 15.8049 15.4556 15.5844C15.8103 14.7264 15.9927 13.8078 15.9925 12.8803C15.9925 8.91539 12.7109 5.66699 8.70458 5.66699ZM8.70458 9.04698C10.8618 9.04698 12.5776 10.7456 12.5776 12.8806C12.5776 15.0157 10.8618 16.7136 8.70458 16.7136C6.54771 16.7136 4.83158 15.0153 4.83158 12.8806C4.83158 10.7456 6.54771 9.04698 8.70458 9.04698Z" fill="#333333"/>
<path fill-rule="evenodd" clip-rule="evenodd" d="M32.0288 7.53127C31.249 7.54849 30.4671 7.58122 29.6838 7.63874L29.8046 9.54438C30.557 9.49029 31.3106 9.45548 32.0648 9.44L32.0288 7.53127ZM27.8729 7.81374C26.6687 7.9622 25.454 8.17371 24.2532 8.51371L24.7054 10.3604C25.7965 10.0518 26.9272 9.85234 28.0756 9.71076L27.8729 7.81374ZM22.4552 9.15305C22.0954 9.31069 21.7471 9.4929 21.4127 9.69836L21.4113 9.70008L21.4092 9.70077C20.932 9.99908 20.4292 10.3777 20.0186 10.9278C19.7212 11.3263 19.4779 11.8303 19.421 12.4263L21.1892 12.6209C21.2024 12.481 21.2746 12.2964 21.4044 12.1228C21.6136 11.8417 21.9281 11.5857 22.3011 11.3522L22.3025 11.3515C22.5684 11.1886 22.8453 11.044 23.1313 10.9188L22.4552 9.15305ZM21.5449 13.471L20.3986 14.9299C20.6704 15.1765 20.9553 15.366 21.2305 15.5245L21.234 15.5262L21.2374 15.5282C22.1509 16.0439 23.0927 16.335 23.9659 16.6113L24.4677 14.7794C23.5949 14.5031 22.7721 14.2365 22.0669 13.8389C21.8649 13.7225 21.6879 13.6009 21.5449 13.471ZM26.1727 15.2947L25.6827 17.1297L25.9145 17.2014L26.1991 17.2916C27.141 17.5958 28.0433 17.9206 28.8498 18.3702L29.6682 16.6753C28.693 16.1314 27.6806 15.7759 26.7051 15.4611L26.7023 15.4604L26.4101 15.3677L26.1727 15.2947ZM31.3322 17.9472L30.0749 19.2975C30.372 19.6168 30.5944 20.0009 30.7027 20.3977L30.7034 20.3998L30.7041 20.4029C30.8332 20.8662 30.8335 21.4112 30.7325 21.9617L32.4761 22.3309C32.6184 21.5538 32.6413 20.7005 32.4074 19.8583C32.2037 19.1135 31.815 18.4666 31.3322 17.9472ZM30.1238 23.1122C29.9317 23.3136 29.7194 23.4951 29.4901 23.6537C28.8655 24.0898 28.1401 24.4184 27.3704 24.7009L27.9444 26.5073C28.7863 26.1984 29.6508 25.8194 30.4587 25.2552L30.4608 25.2535L30.4619 25.2528C30.7936 25.0222 31.1006 24.7582 31.3777 24.465L30.1238 23.1122ZM25.7372 25.2097C24.6222 25.5073 23.4825 25.734 22.3289 25.9262L22.601 27.8136C23.7882 27.6155 24.9803 27.3789 26.1651 27.0626L25.7372 25.2097ZM20.5933 26.1866C19.4321 26.3441 18.2647 26.4726 17.0937 26.5821L17.2471 28.4843C18.4361 28.3734 19.6272 28.2428 20.8165 28.0813L20.5933 26.1866ZM15.3339 26.7319C14.1605 26.8243 12.9844 26.8994 11.8072 26.9627L11.8961 28.8698C13.0847 28.806 14.2744 28.7299 15.4637 28.6362L15.3339 26.7319ZM10.0383 27.0489C9.33281 27.0816 8.62553 27.1085 7.91652 27.1333L7.97483 29.042C8.68827 29.0176 9.40157 28.9894 10.1147 28.9573L10.0383 27.0489Z" fill="#333333"/>
</svg>
