<svg width="24" height="24" viewBox="0 0 24 24" fill="none" xmlns="http://www.w3.org/2000/svg">
<path d="M6.14441 4C3.31719 4 1 6.29299 1 9.09174C1 10.1762 1.34884 11.1841 1.93947 12.0126L5.51679 18.1509C6.01776 18.8006 6.35092 18.6773 6.76762 18.1168L10.7131 11.4518C10.7927 11.3084 10.8552 11.1562 10.9098 11.0005C11.1602 10.3948 11.289 9.74644 11.2888 9.09174C11.2888 6.29299 8.97236 4 6.14441 4ZM6.14441 6.38587C7.66715 6.38587 8.87829 7.58489 8.87829 9.09199C8.87829 10.5991 7.66715 11.7976 6.14441 11.7976C4.62191 11.7976 3.41052 10.5988 3.41052 9.09199C3.41052 7.58489 4.62191 6.38587 6.14441 6.38587Z" fill="#333333"/>
<path fill-rule="evenodd" clip-rule="evenodd" d="M22.6085 5.31596C22.0581 5.32812 21.5062 5.35122 20.9533 5.39182L21.0385 6.73698C21.5696 6.6988 22.1016 6.67423 22.634 6.6633L22.6085 5.31596ZM19.675 5.51535C18.8249 5.62015 17.9675 5.76945 17.1199 6.00945L17.4391 7.31302C18.2093 7.09515 19.0074 6.95436 19.8181 6.85442L19.675 5.51535ZM15.8507 6.46075C15.5968 6.57202 15.3509 6.70064 15.1148 6.84567L15.1139 6.84689L15.1124 6.84737C14.7756 7.05795 14.4206 7.32518 14.1308 7.7135C13.9208 7.99484 13.7491 8.35058 13.7089 8.77124L14.9571 8.90863C14.9664 8.80991 15.0173 8.67957 15.109 8.55702C15.2567 8.3586 15.4786 8.17794 15.742 8.01307L15.7429 8.01259C15.9307 7.89759 16.1261 7.79555 16.3279 7.70718L15.8507 6.46075ZM15.2082 9.50874L14.399 10.5385C14.5908 10.7126 14.792 10.8464 14.9862 10.9582L14.9887 10.9594L14.9911 10.9609C15.6359 11.3249 16.3007 11.5304 16.9171 11.7254L17.2713 10.4323C16.6552 10.2372 16.0744 10.049 15.5766 9.76844C15.434 9.68625 15.3091 9.60041 15.2082 9.50874ZM18.4749 10.796L18.129 12.0913L18.2926 12.1419L18.4935 12.2056C19.1583 12.4203 19.7953 12.6496 20.3646 12.9669L20.9422 11.7706C20.2539 11.3867 19.5393 11.1357 18.8507 10.9135L18.8487 10.913L18.6424 10.8476L18.4749 10.796ZM22.1169 12.6683L21.2293 13.6215C21.439 13.8469 21.5961 14.1181 21.6725 14.3982L21.673 14.3996L21.6735 14.4018C21.7646 14.7289 21.7648 15.1136 21.6936 15.5021L22.9243 15.7628C23.0247 15.2142 23.0409 14.6119 22.8758 14.0174C22.732 13.4917 22.4576 13.035 22.1169 12.6683ZM21.2639 16.3143C21.1283 16.4564 20.9784 16.5845 20.8166 16.6965C20.3756 17.0043 19.8636 17.2363 19.3203 17.4357L19.7255 18.7108C20.3198 18.4927 20.93 18.2252 21.5003 17.827L21.5017 17.8257L21.5025 17.8253C21.7367 17.6625 21.9533 17.4761 22.149 17.2692L21.2639 16.3143ZM18.1674 17.7949C17.3803 18.0049 16.5759 18.1649 15.7616 18.3006L15.9536 19.6329C16.7917 19.4931 17.6332 19.326 18.4695 19.1028L18.1674 17.7949ZM14.5365 18.4845C13.7168 18.5956 12.8927 18.6863 12.0662 18.7636L12.1744 20.1063C13.0137 20.028 13.8545 19.9359 14.694 19.8218L14.5365 18.4845ZM10.8239 18.8694C9.99566 18.9345 9.16545 18.9876 8.33451 19.0323L8.39722 20.3784C9.23625 20.3334 10.076 20.2797 10.9155 20.2136L10.8239 18.8694ZM7.08589 19.0931C6.58786 19.1162 6.08861 19.1352 5.58813 19.1527L5.62929 20.5C6.13289 20.4828 6.6364 20.4629 7.13978 20.4402L7.08589 19.0931Z" fill="#333333"/>
</svg>
