<svg width="20" height="21" viewBox="0 0 20 21" fill="none" xmlns="http://www.w3.org/2000/svg">
<path d="M3.33325 4.66683C3.33325 4.44582 3.42105 4.23385 3.57733 4.07757C3.73361 3.92129 3.94557 3.8335 4.16659 3.8335H7.49992C7.72093 3.8335 7.93289 3.92129 8.08917 4.07757C8.24545 4.23385 8.33325 4.44582 8.33325 4.66683V8.8335C8.33325 9.05451 8.24545 9.26647 8.08917 9.42275C7.93289 9.57903 7.72093 9.66683 7.49992 9.66683H4.16659C3.94557 9.66683 3.73361 9.57903 3.57733 9.42275C3.42105 9.26647 3.33325 9.05451 3.33325 8.8335V4.66683ZM11.6666 4.66683C11.6666 4.44582 11.7544 4.23385 11.9107 4.07757C12.0669 3.92129 12.2789 3.8335 12.4999 3.8335H15.8333C16.0543 3.8335 16.2662 3.92129 16.4225 4.07757C16.5788 4.23385 16.6666 4.44582 16.6666 4.66683V6.3335C16.6666 6.55451 16.5788 6.76647 16.4225 6.92275C16.2662 7.07903 16.0543 7.16683 15.8333 7.16683H12.4999C12.2789 7.16683 12.0669 7.07903 11.9107 6.92275C11.7544 6.76647 11.6666 6.55451 11.6666 6.3335V4.66683ZM3.33325 13.8335C3.33325 13.6125 3.42105 13.4005 3.57733 13.2442C3.73361 13.088 3.94557 13.0002 4.16659 13.0002H7.49992C7.72093 13.0002 7.93289 13.088 8.08917 13.2442C8.24545 13.4005 8.33325 13.6125 8.33325 13.8335V16.3335C8.33325 16.5545 8.24545 16.7665 8.08917 16.9228C7.93289 17.079 7.72093 17.1668 7.49992 17.1668H4.16659C3.94557 17.1668 3.73361 17.079 3.57733 16.9228C3.42105 16.7665 3.33325 16.5545 3.33325 16.3335V13.8335ZM11.6666 11.3335C11.6666 11.1125 11.7544 10.9005 11.9107 10.7442C12.0669 10.588 12.2789 10.5002 12.4999 10.5002H15.8333C16.0543 10.5002 16.2662 10.588 16.4225 10.7442C16.5788 10.9005 16.6666 11.1125 16.6666 11.3335V16.3335C16.6666 16.5545 16.5788 16.7665 16.4225 16.9228C16.2662 17.079 16.0543 17.1668 15.8333 17.1668H12.4999C12.2789 17.1668 12.0669 17.079 11.9107 16.9228C11.7544 16.7665 11.6666 16.5545 11.6666 16.3335V11.3335Z" stroke="white" stroke-width="1.5"/>
</svg>
