<svg width="60" height="70" viewBox="0 0 60 70" fill="none" xmlns="http://www.w3.org/2000/svg">
<path d="M59.3132 12.8822L42.0288 22.2391V3.52539H59.3132V12.8822ZM59.3132 34.5984L42.0288 43.9553V25.2416H59.3132V34.5984ZM59.3132 57.1182L42.0288 66.475V47.7613H59.3132V57.1182Z" fill="#333940"/>
<path d="M0.687012 12.8822L17.9714 22.2391V3.52539H0.687012V12.8822ZM0.687012 34.5984L17.9714 43.9553V25.2416H0.687012V34.5984ZM0.687012 57.1182L17.9714 66.475V47.7613H0.687012V57.1182Z" fill="#353D44"/>
<path d="M13.4888 0.0390625H46.5112V69.1574H13.4888V0.0390625Z" fill="#555A66"/>
<path d="M13.4888 0.0390625H46.5112V69.1574H13.4888V0.0390625Z" fill="#555A66"/>
<path d="M29.9814 0.0390625H46.5113V69.1574H29.9814V0.0390625Z" fill="#353D44"/>
<path d="M29.9999 21.8563C35.1675 21.8563 39.3567 17.6671 39.3567 12.4994C39.3567 7.33178 35.1675 3.14258 29.9999 3.14258C24.8323 3.14258 20.6431 7.33178 20.6431 12.4994C20.6431 17.6671 24.8323 21.8563 29.9999 21.8563Z" fill="#353D44"/>
<path d="M30 3.14258L29.9814 3.14297V21.8559L30 21.8563C35.1676 21.8563 39.3568 17.667 39.3568 12.4994C39.3568 7.33184 35.1676 3.14258 30 3.14258Z" fill="#555A66"/>
<path d="M30.355 44.71C35.5216 44.71 39.71 40.5216 39.71 35.355C39.71 30.1884 35.5216 26 30.355 26C25.1884 26 21 30.1884 21 35.355C21 40.5216 25.1884 44.71 30.355 44.71Z" fill="#FFDA00"/>
<path d="M30.355 26L30.3364 26.0004V44.7096L30.355 44.71C35.5215 44.71 39.71 40.5216 39.71 35.355C39.71 30.1884 35.5215 26 30.355 26Z" fill="#FFB000"/>
<path d="M29.9999 66.8563C35.1675 66.8563 39.3567 62.6671 39.3567 57.4994C39.3567 52.3318 35.1675 48.1426 29.9999 48.1426C24.8323 48.1426 20.6431 52.3318 20.6431 57.4994C20.6431 62.6671 24.8323 66.8563 29.9999 66.8563Z" fill="#353D44"/>
<path d="M30 48.1426L29.9814 48.143V66.8559L30 66.8563C35.1676 66.8563 39.3568 62.667 39.3568 57.4994C39.3568 52.3318 35.1676 48.1426 30 48.1426Z" fill="#555A66"/>
</svg>
