<svg width="20" height="20" viewBox="0 0 20 20" fill="none" xmlns="http://www.w3.org/2000/svg">
<path d="M18.3332 8.33317H1.6665M1.6665 6.83317L1.6665 13.1665C1.6665 14.0999 1.6665 14.5666 1.84816 14.9232C2.00795 15.2368 2.26292 15.4917 2.57652 15.6515C2.93304 15.8332 3.39975 15.8332 4.33317 15.8332L15.6665 15.8332C16.5999 15.8332 17.0666 15.8332 17.4232 15.6515C17.7368 15.4917 17.9917 15.2368 18.1515 14.9232C18.3332 14.5666 18.3332 14.0999 18.3332 13.1665V6.83317C18.3332 5.89975 18.3332 5.43304 18.1515 5.07652C17.9917 4.76292 17.7368 4.50795 17.4232 4.34816C17.0666 4.16651 16.5999 4.16651 15.6665 4.1665L4.33317 4.1665C3.39975 4.1665 2.93304 4.1665 2.57652 4.34816C2.26292 4.50795 2.00795 4.76292 1.84816 5.07652C1.6665 5.43304 1.6665 5.89975 1.6665 6.83317Z" stroke="#4F4F4F" stroke-width="1.5" stroke-linecap="round" stroke-linejoin="round"/>
</svg>
