<svg width="18" height="19" viewBox="0 0 18 19" fill="none" xmlns="http://www.w3.org/2000/svg">
<path d="M17.8125 12.25C17.8125 12.3992 17.7532 12.5423 17.6477 12.6477C17.5423 12.7532 17.3992 12.8125 17.25 12.8125H14.8125V14.6875H16.5C16.6492 14.6875 16.7923 14.7468 16.8977 14.8523C17.0032 14.9577 17.0625 15.1008 17.0625 15.25C17.0625 15.3992 17.0032 15.5423 16.8977 15.6477C16.7923 15.7532 16.6492 15.8125 16.5 15.8125H14.8125V17.5C14.8125 17.6492 14.7532 17.7923 14.6477 17.8977C14.5423 18.0032 14.3992 18.0625 14.25 18.0625C14.1008 18.0625 13.9577 18.0032 13.8523 17.8977C13.7468 17.7923 13.6875 17.6492 13.6875 17.5V12.25C13.6875 12.1008 13.7468 11.9577 13.8523 11.8523C13.9577 11.7468 14.1008 11.6875 14.25 11.6875H17.25C17.3992 11.6875 17.5423 11.7468 17.6477 11.8523C17.7532 11.9577 17.8125 12.1008 17.8125 12.25ZM5.4375 14.125C5.4375 14.7715 5.18069 15.3915 4.72357 15.8486C4.26645 16.3057 3.64647 16.5625 3 16.5625H2.0625V17.5C2.0625 17.6492 2.00324 17.7923 1.89775 17.8977C1.79226 18.0032 1.64918 18.0625 1.5 18.0625C1.35082 18.0625 1.20774 18.0032 1.10225 17.8977C0.996763 17.7923 0.9375 17.6492 0.9375 17.5V12.25C0.9375 12.1008 0.996763 11.9577 1.10225 11.8523C1.20774 11.7468 1.35082 11.6875 1.5 11.6875H3C3.64647 11.6875 4.26645 11.9443 4.72357 12.4014C5.18069 12.8585 5.4375 13.4785 5.4375 14.125ZM4.3125 14.125C4.3125 13.7769 4.17422 13.4431 3.92808 13.1969C3.68194 12.9508 3.3481 12.8125 3 12.8125H2.0625V15.4375H3C3.3481 15.4375 3.68194 15.2992 3.92808 15.0531C4.17422 14.8069 4.3125 14.4731 4.3125 14.125ZM12.1875 14.875C12.1875 15.7204 11.8517 16.5311 11.2539 17.1289C10.6561 17.7267 9.84538 18.0625 9 18.0625H7.5C7.35082 18.0625 7.20774 18.0032 7.10225 17.8977C6.99676 17.7923 6.9375 17.6492 6.9375 17.5V12.25C6.9375 12.1008 6.99676 11.9577 7.10225 11.8523C7.20774 11.7468 7.35082 11.6875 7.5 11.6875H9C9.84538 11.6875 10.6561 12.0233 11.2539 12.6211C11.8517 13.2189 12.1875 14.0296 12.1875 14.875ZM11.0625 14.875C11.0625 14.328 10.8452 13.8034 10.4584 13.4166C10.0716 13.0298 9.54701 12.8125 9 12.8125H8.0625V16.9375H9C9.54701 16.9375 10.0716 16.7202 10.4584 16.3334C10.8452 15.9466 11.0625 15.422 11.0625 14.875ZM0.9375 8.5V1.75C0.9375 1.4019 1.07578 1.06806 1.32192 0.821923C1.56806 0.575781 1.9019 0.4375 2.25 0.4375H11.25C11.324 0.437442 11.3973 0.451986 11.4657 0.4803C11.534 0.508614 11.5961 0.55014 11.6484 0.6025L16.8984 5.8525C17.0036 5.95804 17.0626 6.101 17.0625 6.25V8.5C17.0625 8.64918 17.0032 8.79226 16.8977 8.89775C16.7923 9.00324 16.6492 9.0625 16.5 9.0625C16.3508 9.0625 16.2077 9.00324 16.1023 8.89775C15.9968 8.79226 15.9375 8.64918 15.9375 8.5V6.8125H11.25C11.1008 6.8125 10.9577 6.75324 10.8523 6.64775C10.7468 6.54226 10.6875 6.39918 10.6875 6.25V1.5625H2.25C2.20027 1.5625 2.15258 1.58225 2.11742 1.61742C2.08225 1.65258 2.0625 1.70027 2.0625 1.75V8.5C2.0625 8.64918 2.00324 8.79226 1.89775 8.89775C1.79226 9.00324 1.64918 9.0625 1.5 9.0625C1.35082 9.0625 1.20774 9.00324 1.10225 8.89775C0.996763 8.79226 0.9375 8.64918 0.9375 8.5ZM11.8125 5.6875H15.1425L11.8125 2.3575V5.6875Z" fill="#05326E"/>
</svg>
