<svg width="21" height="21" viewBox="0 0 21 21" fill="none" xmlns="http://www.w3.org/2000/svg">
<path d="M17.1667 16.3332V13.8332H6.33337C4.95266 13.8332 3.83337 14.9525 3.83337 16.3332M7.83337 18.8332H14.5C15.4335 18.8332 15.9002 18.8332 16.2567 18.6515C16.5703 18.4917 16.8253 18.2368 16.9851 17.9232C17.1667 17.5666 17.1667 17.0999 17.1667 16.1665V4.83317C17.1667 3.89975 17.1667 3.43304 16.9851 3.07652C16.8253 2.76292 16.5703 2.50795 16.2567 2.34816C15.9002 2.1665 15.4335 2.1665 14.5 2.1665H7.83337C6.43324 2.1665 5.73318 2.1665 5.1984 2.43899C4.72799 2.67867 4.34554 3.06112 4.10586 3.53153C3.83337 4.06631 3.83337 4.76637 3.83337 6.1665V14.8332C3.83337 16.2333 3.83337 16.9334 4.10586 17.4681C4.34554 17.9386 4.72799 18.321 5.1984 18.5607C5.73318 18.8332 6.43324 18.8332 7.83337 18.8332Z" stroke="#525761" stroke-width="1.5" stroke-linecap="round" stroke-linejoin="round"/>
</svg>
