<svg width="44" height="44" viewBox="0 0 44 44" fill="none" xmlns="http://www.w3.org/2000/svg">
<rect x="0.5" y="0.5" width="43" height="43" rx="21.5" fill="white"/>
<rect x="0.5" y="0.5" width="43" height="43" rx="21.5" stroke="#F4F5FA"/>
<path d="M22.0004 25L22.0004 32M18.0004 17.3081V19.4388C18.0004 19.6468 18.0004 19.7508 17.98 19.8503C17.9619 19.9385 17.9319 20.0239 17.8909 20.1042C17.8447 20.1946 17.7798 20.2758 17.6498 20.4383L16.08 22.4005C15.4143 23.2327 15.0814 23.6487 15.0811 23.9989C15.0807 24.3035 15.2192 24.5916 15.4572 24.7815C15.7309 25 16.2637 25 17.3294 25H26.6714C27.7371 25 28.27 25 28.5437 24.7815C28.7817 24.5916 28.9201 24.3035 28.9198 23.9989C28.9194 23.6487 28.5866 23.2327 27.9208 22.4005L26.351 20.4383C26.2211 20.2758 26.1561 20.1946 26.1099 20.1042C26.0689 20.0239 26.039 19.9385 26.0208 19.8503C26.0004 19.7508 26.0004 19.6468 26.0004 19.4388V17.3081C26.0004 17.193 26.0004 17.1354 26.0069 17.0787C26.0127 17.0282 26.0223 16.9783 26.0357 16.9294C26.0507 16.8742 26.0721 16.8208 26.1149 16.7139L27.1227 14.1942C27.4168 13.4591 27.5638 13.0916 27.5025 12.7965C27.4489 12.5385 27.2956 12.3121 27.0759 12.1665C26.8247 12 26.4289 12 25.6372 12H18.3637C17.572 12 17.1761 12 16.9249 12.1665C16.7053 12.3121 16.552 12.5385 16.4984 12.7965C16.4371 13.0916 16.5841 13.4591 16.8781 14.1942L17.886 16.7139C17.9287 16.8208 17.9501 16.8742 17.9652 16.9294C17.9785 16.9783 17.9881 17.0282 17.9939 17.0787C18.0004 17.1354 18.0004 17.193 18.0004 17.3081Z" stroke="#05326E" stroke-width="2" stroke-linecap="round" stroke-linejoin="round"/>
</svg>
