<svg width="24" height="24" viewBox="0 0 24 24" fill="none" xmlns="http://www.w3.org/2000/svg">
<path d="M12 15H8C6.13623 15 5.20435 15 4.46927 15.3045C3.48915 15.7105 2.71046 16.4892 2.30448 17.4693C2 18.2043 2 19.1362 2 21M15.5 3.29076C16.9659 3.88415 18 5.32131 18 7C18 8.67869 16.9659 10.1159 15.5 10.7092M20.8176 18.2977C20.725 19.1676 20.2321 19.9829 19.4164 20.4538C18.0613 21.2362 16.3284 20.7719 15.546 19.4167L15.4627 19.2724M15.182 16.7023C15.2746 15.8324 15.7676 15.0171 16.5832 14.5462C17.9384 13.7638 19.6712 14.2281 20.4536 15.5833L20.537 15.7276M15.1644 20.022L15.4084 19.1113L16.3191 19.3554M19.6808 15.6447L20.5915 15.8887L20.8355 14.978M13.5 7C13.5 9.20914 11.7091 11 9.5 11C7.29086 11 5.5 9.20914 5.5 7C5.5 4.79086 7.29086 3 9.5 3C11.7091 3 13.5 4.79086 13.5 7Z" stroke="#828282" stroke-width="2" stroke-linecap="round" stroke-linejoin="round"/>
</svg>
