<svg width="20" height="21" viewBox="0 0 20 21" fill="none" xmlns="http://www.w3.org/2000/svg">
<path d="M3.33337 10.9202H16.3226C16.708 10.9202 16.9007 10.9202 17.0107 10.8394C17.1067 10.769 17.1679 10.6608 17.179 10.5423C17.1917 10.4063 17.0925 10.241 16.8942 9.91058L15.2058 7.09658C15.131 6.97187 15.0936 6.90952 15.079 6.84295C15.0661 6.78407 15.0661 6.72309 15.079 6.66421C15.0936 6.59765 15.131 6.53529 15.2058 6.41058L16.8942 3.59658C17.0925 3.2661 17.1917 3.10087 17.179 2.96491C17.1679 2.84636 17.1067 2.7382 17.0107 2.66773C16.9007 2.58691 16.708 2.58691 16.3226 2.58691H3.33337L3.33337 17.5869" stroke="#ED1C24" stroke-width="1.5" stroke-linecap="round" stroke-linejoin="round"/>
</svg>
