<svg width="164" height="160" viewBox="0 0 164 160" fill="none" xmlns="http://www.w3.org/2000/svg">
<circle cx="75.0053" cy="74.2267" r="74.2267" fill="#F5F8FF"/>
<circle cx="75.0052" cy="74.227" r="57.7318" fill="#E4ECFE"/>
<path d="M110.318 124.119H39.8514C38.385 124.119 37.1962 122.931 37.1962 121.464V26.8593C37.1962 25.3929 38.385 24.2041 39.8514 24.2041H94.5052L112.974 41.2519V121.464C112.974 122.931 111.785 124.119 110.318 124.119Z" fill="#F5F8FF" stroke="#B7CEFF" stroke-width="2"/>
<path fill-rule="evenodd" clip-rule="evenodd" d="M45.7042 45.2164C45.7042 43.9837 46.7035 42.9844 47.9362 42.9844H91.1541C92.3868 42.9844 93.3861 43.9837 93.3861 45.2164C93.3861 46.4491 92.3868 47.4484 91.1541 47.4484H47.9362C46.7035 47.4484 45.7042 46.4491 45.7042 45.2164ZM45.7042 58.9742C45.7042 57.7415 46.7035 56.7422 47.9362 56.7422H103.701C104.934 56.7422 105.933 57.7415 105.933 58.9742C105.933 60.2069 104.934 61.2062 103.701 61.2062H47.9362C46.7035 61.2062 45.7042 60.2069 45.7042 58.9742ZM45.7042 72.732C45.7042 71.4993 46.7035 70.5 47.9362 70.5H63.2716C64.5043 70.5 65.5036 71.4993 65.5036 72.732C65.5036 73.9647 64.5043 74.964 63.2716 74.964H47.9362C46.7035 74.964 45.7042 73.9647 45.7042 72.732ZM70.7984 72.732C70.7984 71.4993 71.7977 70.5 73.0305 70.5H103.701C104.934 70.5 105.933 71.4993 105.933 72.732C105.933 73.9647 104.934 74.964 103.701 74.964H73.0305C71.7977 74.964 70.7984 73.9647 70.7984 72.732ZM45.7042 86.4898C45.7042 85.2571 46.7035 84.2578 47.9362 84.2578H88.3658C89.5985 84.2578 90.5978 85.2571 90.5978 86.4898C90.5978 87.7225 89.5985 88.7218 88.3658 88.7218H47.9362C46.7035 88.7218 45.7042 87.7225 45.7042 86.4898ZM95.8927 86.4898C95.8927 85.2571 96.892 84.2578 98.1247 84.2578H103.701C104.934 84.2578 105.933 85.2571 105.933 86.4898C105.933 87.7225 104.934 88.7218 103.701 88.7218H98.1247C96.892 88.7218 95.8927 87.7225 95.8927 86.4898ZM45.7042 98.8718C45.7042 97.6391 46.7035 96.6398 47.9362 96.6398H99.5188C100.752 96.6398 101.751 97.6391 101.751 98.8718C101.751 100.105 100.752 101.104 99.5188 101.104H47.9362C46.7035 101.104 45.7042 100.105 45.7042 98.8718ZM45.7042 111.254C45.7042 110.021 46.7035 109.022 47.9362 109.022H85.5776C86.8103 109.022 87.8096 110.021 87.8096 111.254C87.8096 112.487 86.8103 113.486 85.5776 113.486H47.9362C46.7035 113.486 45.7042 112.487 45.7042 111.254Z" fill="#B7CEFF"/>
<path d="M45.7042 45.2164C45.7042 43.9837 46.7035 42.9844 47.9362 42.9844H91.154C92.3867 42.9844 93.3861 43.9837 93.3861 45.2164C93.3861 46.4491 92.3867 47.4484 91.154 47.4484H47.9362C46.7035 47.4484 45.7042 46.4491 45.7042 45.2164Z" fill="#2D56B2"/>
<path d="M94.8962 23.2041L113.974 40.8141H98.8962C96.6871 40.8141 94.8962 39.0232 94.8962 36.8141V23.2041Z" fill="#B7CEFF"/>
<rect width="17.9887" height="3.1015" rx="1.55075" transform="matrix(-0.707107 0.707107 0.707107 0.707107 25.7115 25.6475)" fill="#2D56B2"/>
<rect width="17.9887" height="3.1015" rx="1.55075" transform="matrix(0.707107 0.707107 0.707107 -0.707107 12.9916 27.8408)" fill="#2D56B2"/>
<circle cx="32.9491" cy="68.8097" r="5.3019" stroke="#5388FE" stroke-width="4"/>
<circle cx="143.191" cy="85.0116" r="4.40615" stroke="#2D56B2" stroke-width="4"/>
<circle cx="13.126" cy="94.1741" r="1.35574" stroke="#4F86FF" stroke-width="3"/>
<path d="M77.6161 151.39C104.328 151.39 125.983 150.126 125.983 148.566C125.983 147.006 104.328 145.742 77.6161 145.742C50.9038 145.742 29.2491 147.006 29.2491 148.566C29.2491 150.126 50.9038 151.39 77.6161 151.39Z" fill="#B7CEFF"/>
<path d="M103.05 107.203L110.317 99.9355L140.264 125.496C143.932 128.627 144.153 134.219 140.743 137.629C137.333 141.038 131.741 140.818 128.61 137.15L103.05 107.203Z" fill="#1A3166"/>
<path d="M108.21 113.249L128.61 137.151C131.741 140.819 137.333 141.039 140.743 137.63C144.153 134.22 143.932 128.627 140.264 125.497L113.583 102.724C112.509 106.595 110.661 110.158 108.21 113.249Z" fill="#2D56B2"/>
<path d="M94.7517 63.5931L75.9674 107.203C75.6781 106.98 75.3915 106.748 75.11 106.513C73.2945 104.978 71.7134 103.174 70.4192 101.161L86.6443 63.4918C89.3324 63.0493 92.075 63.0835 94.7517 63.5931Z" fill="white"/>
<path d="M108.105 71.1588L90.4439 112.161C86.7755 112.165 83.1553 111.306 79.8634 109.652L99.1481 64.877C102.565 66.2428 105.629 68.3919 108.105 71.1588Z" fill="white"/>
<path fill-rule="evenodd" clip-rule="evenodd" d="M79.7073 69.6203C76.2874 71.8461 73.5784 75.0665 71.9344 78.8831C70.29 82.7005 69.7884 86.9352 70.4968 91.049C71.205 95.1625 73.0892 98.9592 75.8997 101.962C78.7094 104.965 82.3177 107.038 86.2634 107.934C90.2085 108.829 94.325 108.51 98.0958 107.012L98.0962 107.012C100.601 106.017 102.895 104.526 104.844 102.62C106.794 100.713 108.361 98.4288 109.453 95.8947C110.544 93.3604 111.138 90.6284 111.198 87.8552C111.257 85.0821 110.782 82.3255 109.8 79.7437L109.8 79.7433C108.322 75.8548 105.754 72.5137 102.431 70.1345C99.1103 67.7559 95.1823 66.4429 91.1441 66.3518C87.1059 66.2606 83.1262 67.395 79.7073 69.6203ZM65.6147 76.1608C67.7884 71.1146 71.3825 66.8283 75.9537 63.8531C80.5259 60.8773 85.8665 59.3498 91.2994 59.4724C96.7322 59.5951 102 61.362 106.438 64.5401C110.875 67.7176 114.279 72.1602 116.232 77.2983C117.529 80.7102 118.156 84.3476 118.077 88.0035C117.998 91.6595 117.216 95.2658 115.772 98.617C114.329 101.968 112.251 105.001 109.655 107.54C107.059 110.078 103.995 112.074 100.636 113.407C95.576 115.417 90.0432 115.848 84.7403 114.644C79.4379 113.441 74.6146 110.659 70.8756 106.664C67.1373 102.67 64.6494 97.6407 63.7155 92.2167C62.7816 86.7929 63.4412 81.2064 65.6147 76.1608Z" fill="#2D56B2"/>
<path d="M137.578 125.736L116.002 108.068C115.333 107.52 114.554 108.29 115.096 108.964L132.518 130.634C133.191 131.47 134.162 132.013 135.173 132.119L135.771 132.181C137.837 132.397 139.391 130.765 139.087 128.699L139.016 128.218C138.876 127.271 138.356 126.373 137.578 125.736Z" fill="#9FBDFF"/>
<rect width="27.9904" height="4.82593" rx="2.41296" transform="matrix(-0.707107 0.707107 0.707107 0.707107 98.7339 75.7197)" fill="#2D56B2"/>
<rect width="27.9904" height="4.82593" rx="2.41296" transform="matrix(0.707107 0.707107 0.707107 -0.707107 78.9417 79.1318)" fill="#2D56B2"/>
<rect width="15.633" height="2.69535" rx="1.34768" transform="matrix(-0.707107 0.707107 0.707107 0.707107 136.405 45.1875)" fill="#5388FE"/>
<rect width="15.633" height="2.69535" rx="1.34768" transform="matrix(0.707107 0.707107 0.707107 -0.707107 125.351 47.0938)" fill="#5388FE"/>
<rect width="13.2585" height="2.28595" rx="1.14298" transform="matrix(-0.707107 0.707107 0.707107 0.707107 55.3419 130.679)" fill="#2D56B2"/>
<rect width="13.2585" height="2.28595" rx="1.14298" transform="matrix(0.707107 0.707107 0.707107 -0.707107 45.9667 132.295)" fill="#2D56B2"/>
</svg>
