<svg width="29" height="28" viewBox="0 0 29 28" fill="none" xmlns="http://www.w3.org/2000/svg">
<path d="M19.7429 24.1023C18.7607 24.281 17.8716 24.7968 17.2288 25.5606L17.2229 25.5676C16.9431 25.9362 16.5673 26.2206 16.1366 26.3897C15.7059 26.5589 15.2369 26.6062 14.7811 26.5266L14.7963 26.5289V26.5138L14.7029 26.5161L14.6049 26.5138H14.6096V26.5289C14.1571 26.6055 13.6924 26.557 13.2655 26.3886C12.8386 26.2202 12.4659 25.9383 12.1876 25.5734L12.1829 25.5676C11.5464 24.8064 10.665 24.29 9.68975 24.1069L9.66292 24.1023C8.68407 23.8942 7.66294 24.05 6.79066 24.5405C5.91838 25.031 5.25473 25.8225 4.92392 26.7669L4.91459 26.7961L6.29359 27.2569C6.5123 26.6354 6.9526 26.1164 7.53016 25.7993C8.10773 25.4822 8.78196 25.3894 9.42375 25.5384L9.40625 25.5349C10.0887 25.6609 10.702 26.0308 11.1318 26.5756L11.1364 26.5814C11.5138 27.0452 11.9942 27.4145 12.5395 27.66C13.0847 27.9055 13.6797 28.0203 14.2771 27.9954H14.2701C14.4066 27.9954 14.5501 27.9884 14.7018 27.9791C14.8511 27.9884 14.9958 27.9954 15.1334 27.9954C15.7282 28.0194 16.3203 27.9048 16.8632 27.6606C17.406 27.4164 17.8846 27.0494 18.2613 26.5884L18.2671 26.5814C18.693 26.038 19.3015 25.6675 19.9798 25.5384L19.9973 25.5361C20.6338 25.3915 21.3013 25.4849 21.8736 25.7987C22.446 26.1125 22.8837 26.625 23.1041 27.2394L23.1099 27.2581L24.4889 26.7973C24.1607 25.8419 23.493 25.0402 22.6128 24.5445C21.7325 24.0488 20.7009 23.8935 19.7138 24.1081L19.7406 24.1034L19.7429 24.1023Z" fill="#E20177"/>
<path d="M6.55609 13.7971C6.28581 13.7923 6.02725 13.686 5.83173 13.4993C5.63622 13.3126 5.51806 13.0593 5.50072 12.7895C5.48338 12.5198 5.56814 12.2533 5.73815 12.0432C5.90816 11.833 6.15099 11.6945 6.41842 11.6551H6.42425V11.6621L7.07059 11.7788C7.23987 11.871 7.3812 12.007 7.47974 12.1727C7.57828 12.3384 7.63038 12.5275 7.63059 12.7203V12.7214C7.63028 13.0064 7.51725 13.2798 7.31616 13.4817C7.11507 13.6837 6.84225 13.7979 6.55725 13.7994L6.55609 13.7971ZM7.87559 6.56611L11.0489 5.45311H18.3558L21.5291 6.56611V9.22844L14.7029 8.10844L7.87675 9.22844L7.87559 6.56611ZM12.5621 1.45377H16.8438L17.5309 3.99828H11.8749L12.5621 1.45377ZM22.3376 11.7753L22.9839 11.6586V11.6528C23.2439 11.6853 23.4831 11.8114 23.657 12.0074C23.8309 12.2034 23.9276 12.4559 23.9289 12.7179C23.9289 13.0035 23.8155 13.2774 23.6135 13.4794C23.4116 13.6813 23.1377 13.7948 22.8521 13.7948C22.5665 13.7948 22.2926 13.6813 22.0906 13.4794C21.8887 13.2774 21.7753 13.0035 21.7753 12.7179V12.7168C21.7753 12.3119 21.9993 11.9596 22.3294 11.7776L22.3353 11.7753H22.3376ZM8.78325 22.9321H8.79025C9.16709 22.9321 9.53575 22.9659 9.89392 23.0313L9.85659 23.0254C11.0635 23.244 12.1592 23.8695 12.9611 24.7976L12.9669 24.8046C13.1466 25.0263 13.3636 25.2094 13.6086 25.3471L13.6203 25.3529V25.3319L14.6738 25.4253H14.7181L15.7763 25.3191V25.3564C16.0329 25.2129 16.2499 25.0298 16.4261 24.8139L16.4296 24.8104C17.2232 23.886 18.3085 23.26 19.5061 23.0359L19.5388 23.0313C19.8608 22.9706 20.2318 22.9344 20.6109 22.9333H20.6179C21.0123 22.9333 21.3973 22.9753 21.7671 23.0569L21.7321 23.0499L26.5656 10.0603L22.9757 9.46994V5.53828L19.0733 4.16861L17.9533 0.00244141H11.4456L10.3256 4.16861L6.42308 5.53828V9.46994L2.83325 10.0603L7.66675 23.0499C8.00159 22.9753 8.38659 22.9333 8.78092 22.9333H8.78792L8.78325 22.9321Z" fill="#E20177"/>
</svg>
