<svg width="20" height="20" viewBox="0 0 20 20" fill="none" xmlns="http://www.w3.org/2000/svg">
<path d="M18.3334 8.33335H1.66675M1.66675 6.83335L1.66675 13.1667C1.66675 14.1001 1.66675 14.5668 1.8484 14.9233C2.00819 15.2369 2.26316 15.4919 2.57676 15.6517C2.93328 15.8334 3.39999 15.8334 4.33341 15.8334L15.6667 15.8334C16.6002 15.8334 17.0669 15.8334 17.4234 15.6517C17.737 15.4919 17.992 15.2369 18.1518 14.9233C18.3334 14.5668 18.3334 14.1001 18.3334 13.1667V6.83335C18.3334 5.89993 18.3334 5.43322 18.1518 5.0767C17.992 4.7631 17.737 4.50813 17.4234 4.34834C17.0669 4.16669 16.6002 4.16669 15.6667 4.16669L4.33342 4.16669C3.39999 4.16669 2.93328 4.16669 2.57676 4.34834C2.26316 4.50813 2.00819 4.7631 1.8484 5.0767C1.66675 5.43322 1.66675 5.89993 1.66675 6.83335Z" stroke="#333333" stroke-width="1.5" stroke-linecap="round" stroke-linejoin="round"/>
</svg>
