<svg width="24" height="25" viewBox="0 0 24 25" fill="none" xmlns="http://www.w3.org/2000/svg">
<path d="M21 21.5H4.6C4.03995 21.5 3.75992 21.5 3.54601 21.391C3.35785 21.2951 3.20487 21.1422 3.10899 20.954C3 20.7401 3 20.4601 3 19.9V3.5M21 7.5L15.5657 12.9343C15.3677 13.1323 15.2687 13.2313 15.1545 13.2684C15.0541 13.3011 14.9459 13.3011 14.8455 13.2684C14.7313 13.2313 14.6323 13.1323 14.4343 12.9343L12.5657 11.0657C12.3677 10.8677 12.2687 10.7687 12.1545 10.7316C12.0541 10.6989 11.9459 10.6989 11.8455 10.7316C11.7313 10.7687 11.6323 10.8677 11.4343 11.0657L7 15.5M21 7.5H17M21 7.5V11.5" stroke="#E20177" stroke-width="2" stroke-linecap="round" stroke-linejoin="round"/>
</svg>
