<svg width="128" height="124" viewBox="0 0 128 124" fill="none" xmlns="http://www.w3.org/2000/svg">
<mask id="mask0_8652_97500" style="mask-type:luminance" maskUnits="userSpaceOnUse" x="-42" y="-15" width="583" height="646">
<path d="M-41.3008 -14.8145H540.044V630.059H-41.3008V-14.8145Z" fill="white"/>
</mask>
<g mask="url(#mask0_8652_97500)">
<g opacity="0.5">
<path d="M13.7305 62.6868L76.6145 26.5562L13.7305 62.6868Z" fill="white"/>
<path d="M13.7305 62.6868L76.6145 26.5562" stroke="#06B217" stroke-opacity="0.3" stroke-width="21.4818" stroke-linecap="round"/>
</g>
<g opacity="0.5">
<path d="M28.6836 86.3846L91.5676 50.2539L28.6836 86.3846Z" fill="white"/>
<path d="M28.6836 86.3846L91.5676 50.2539" stroke="#16981A" stroke-opacity="0.3" stroke-width="21.4818" stroke-linecap="round"/>
</g>
<g opacity="0.5">
<path d="M107.688 41.1753L112.588 38.3223L107.688 41.1753Z" fill="white"/>
<path d="M111.688 38.1753L116.588 35.3223" stroke="#C0DAC3" stroke-width="21.4818" stroke-linecap="round"/>
</g>
<g opacity="0.5">
<path d="M50.875 105.881L98.633 77.9854L50.875 105.881Z" fill="white"/>
<path d="M50.875 105.881L98.633 77.9854" stroke="#06B217" stroke-opacity="0.3" stroke-width="21.4818" stroke-linecap="round"/>
</g>
<path d="M110.343 80.6303C111.108 80.7093 111.665 81.3946 111.586 82.1595C111.507 82.9245 110.822 83.4814 110.057 83.4023C109.292 83.3233 108.735 82.638 108.814 81.8731C108.893 81.1081 109.578 80.5512 110.343 80.6303Z" stroke="#16981A" stroke-width="1.00005"/>
<path d="M29.0917 109.139C30.3496 109.269 31.2654 110.396 31.1355 111.654C31.0055 112.912 29.8786 113.828 28.6207 113.698C27.3628 113.568 26.447 112.441 26.577 111.183C26.707 109.925 27.8338 109.009 29.0917 109.139Z" stroke="#16981A" stroke-opacity="0.4" stroke-width="1.64451"/>
<path d="M61.0605 15.1645C62.3184 15.2945 63.2342 16.4213 63.1042 17.6792C62.9742 18.9371 61.8474 19.8529 60.5895 19.7229C59.3315 19.593 58.4158 18.4661 58.5457 17.2082C58.6757 15.9503 59.8026 15.0345 61.0605 15.1645Z" stroke="#16981A" stroke-width="1.64451"/>
<path d="M8.06635 45.0015C8.64408 45.0015 9.11316 45.4705 9.11316 46.0483C9.11316 46.626 8.64408 47.0951 8.06635 47.0951C7.48861 47.0951 7.01953 46.626 7.01953 46.0483C7.01953 45.4705 7.48861 45.0015 8.06635 45.0015Z" stroke="#16981A" stroke-opacity="0.4" stroke-width="1.20207"/>
<path d="M89.371 113.266C89.9488 113.266 90.4178 113.735 90.4178 114.313C90.4178 114.891 89.9488 115.36 89.371 115.36C88.7933 115.36 88.3242 114.891 88.3242 114.313C88.3242 113.735 88.7933 113.266 89.371 113.266Z" stroke="#16981A" stroke-opacity="0.4" stroke-width="1.20207"/>
<path d="M101.383 14.855L102.441 10.7887" stroke="#16981A" stroke-opacity="0.4" stroke-width="0.700389"/>
<path d="M99.9414 12.3184L104.008 13.3766" stroke="#16981A" stroke-opacity="0.4" stroke-width="0.700389"/>
<path d="M12.375 83.4451L13.277 79.3414" stroke="#16981A" stroke-width="0.700389"/>
<path d="M10.8438 80.9641L14.9475 81.8661" stroke="#16981A" stroke-width="0.700389"/>
<path d="M99.7305 101.621L100.385 97.4705" stroke="#27AE60" stroke-opacity="0.1" stroke-width="0.700389"/>
<path d="M98.0547 99.2351L102.205 99.8899" stroke="#27AE60" stroke-opacity="0.1" stroke-width="0.700389"/>
</g>
<path d="M61.9094 32.7974C78.5824 32.7974 92.1196 46.3345 92.1196 63.0075C92.1196 79.6804 78.5824 93.2176 61.9094 93.2176C45.2364 93.2176 31.6992 79.6804 31.6992 63.0075C31.6992 46.3345 45.2364 32.7974 61.9094 32.7974Z" fill="#16981A"/>
<path d="M61.892 35.6514C76.9881 35.6514 89.2449 47.9082 89.2449 63.0043C89.2449 78.1003 76.9881 90.3572 61.892 90.3572C46.7959 90.3572 34.5391 78.1003 34.5391 63.0043C34.5391 47.9082 46.7959 35.6514 61.892 35.6514Z" fill="white"/>
<path d="M49.5391 64.0115L56.934 71.2384L74.245 53.9275" stroke="#16981A" stroke-width="4.20233"/>
</svg>
