<svg width="20" height="21" viewBox="0 0 20 21" fill="none" xmlns="http://www.w3.org/2000/svg">
<path d="M8.33366 7.16671V6.33337M8.33366 10.9167V10.0834M8.33366 14.6667V13.8334M4.33366 3.83337H15.667C16.6004 3.83337 17.0671 3.83337 17.4236 4.01503C17.7372 4.17482 17.9922 4.42979 18.152 4.74339C18.3337 5.09991 18.3337 5.56662 18.3337 6.50004V7.58337C16.7228 7.58337 15.417 8.88921 15.417 10.5C15.417 12.1109 16.7228 13.4167 18.3337 13.4167V14.5C18.3337 15.4335 18.3337 15.9002 18.152 16.2567C17.9922 16.5703 17.7372 16.8253 17.4236 16.9851C17.0671 17.1667 16.6004 17.1667 15.667 17.1667H4.33366C3.40024 17.1667 2.93353 17.1667 2.57701 16.9851C2.2634 16.8253 2.00844 16.5703 1.84865 16.2567C1.66699 15.9002 1.66699 15.4335 1.66699 14.5V13.4167C3.27782 13.4167 4.58366 12.1109 4.58366 10.5C4.58366 8.88921 3.27782 7.58337 1.66699 7.58337V6.50004C1.66699 5.56662 1.66699 5.09991 1.84865 4.74339C2.00844 4.42979 2.2634 4.17482 2.57701 4.01503C2.93353 3.83337 3.40024 3.83337 4.33366 3.83337Z" stroke="#4F4F4F" stroke-width="1.5" stroke-linecap="round" stroke-linejoin="round"/>
</svg>
