<svg width="112" height="121" viewBox="0 0 112 121" fill="none" xmlns="http://www.w3.org/2000/svg">
<path d="M24.9055 51.9363L0.881396 91.868C-0.495323 94.1562 0.243662 97.1269 2.53186 98.5036L24.9053 111.964L24.9055 51.9363ZM108.968 22.4955L86.5944 9.03491V69.0628L110.619 29.1312C111.995 26.843 111.256 23.872 108.968 22.4955Z" fill="#FFDC00"/>
<path d="M86.5961 5.33398V115.665C86.5961 118.333 84.4303 120.499 81.7598 120.499H66.2631C65.2586 115.615 60.9342 111.94 55.75 111.94C50.5659 111.94 46.2391 115.615 45.2346 120.499H29.7403C27.0698 120.499 24.9039 118.333 24.9039 115.665V5.33398C24.9039 2.66586 27.0698 0.5 29.7403 0.5H45.2346C46.2391 5.38461 50.5659 9.05961 55.75 9.05961C60.9342 9.05961 65.2586 5.38461 66.2631 0.5H81.7598C84.4303 0.5 86.5961 2.66586 86.5961 5.33398Z" fill="#FFF0C0"/>
<path d="M86.5951 111.313V115.665C86.5951 118.334 84.429 120.5 81.7599 120.5H66.2635C65.2578 115.614 60.9329 111.94 55.7497 111.94C50.5665 111.94 46.2392 115.614 45.2335 120.5H29.7397C27.0709 120.5 24.9045 118.334 24.9045 115.665V111.313C24.9045 113.983 27.0706 116.148 29.7397 116.148H41.3485C43.5582 110.346 49.1715 106.222 55.7497 106.222C62.3279 106.222 67.9388 110.346 70.1485 116.148H81.7599C84.429 116.148 86.5951 113.983 86.5951 111.313Z" fill="#FFE394"/>
<path d="M20.554 109.346L24.9056 111.964V51.9363L20.554 59.1691V109.346ZM90.9462 11.6531L86.5945 9.03491V69.0628L90.9462 61.83V11.6531Z" fill="#FFBF00"/>
<path d="M58.2695 30.5789L61.8531 36.6206C62.0566 36.9637 62.328 37.2617 62.6507 37.4962C62.9735 37.7306 63.3407 37.8967 63.7299 37.9842L70.5833 39.5254C72.7539 40.0134 73.6096 42.6475 72.1405 44.3182L67.502 49.5933C67.2385 49.8928 67.0391 50.2431 66.9158 50.6225C66.7925 51.0019 66.748 51.4025 66.785 51.7997L67.4371 58.7939C67.6435 61.009 65.4029 62.6367 63.3601 61.7559L56.9096 58.9743C56.5433 58.8164 56.1485 58.7349 55.7496 58.7349C55.3507 58.7349 54.9559 58.8164 54.5896 58.9743L48.1391 61.7559C46.0963 62.6367 43.8557 61.009 44.0621 58.7939L44.7142 51.7997C44.7512 51.4025 44.7067 51.0019 44.5834 50.6225C44.4601 50.2431 44.2607 49.8928 43.9972 49.5933L39.3587 44.3182C37.8896 42.6475 38.7456 40.0136 40.9159 39.5254L47.7692 37.9842C48.1584 37.8967 48.5257 37.7306 48.8484 37.4961C49.1711 37.2616 49.4426 36.9637 49.6461 36.6206L53.2297 30.5789C54.3653 28.6654 57.1346 28.6654 58.2695 30.5789Z" fill="#FFDC00"/>
<path d="M67.1736 55.9657C66.534 57.3155 64.8917 58.0648 63.3603 57.4045L56.9098 54.623C56.5435 54.465 56.1488 54.3835 55.7498 54.3835C55.3509 54.3835 54.9561 54.465 54.5898 54.623L48.1393 57.4045C46.6079 58.0648 44.9656 57.3155 44.326 55.9657L44.0623 58.7939C43.8559 61.009 46.0965 62.6367 48.1393 61.7559L54.5898 58.9744C54.9561 58.8164 55.3509 58.735 55.7498 58.735C56.1488 58.735 56.5435 58.8164 56.9098 58.9744L63.3603 61.7559C65.4031 62.6367 67.6437 61.009 67.4373 58.7939L67.1736 55.9657Z" fill="#FFBF00"/>
<path d="M86.5574 81.7744H84.1429C83.1407 81.7744 82.3319 82.5858 82.3319 83.5854C82.3319 84.585 83.1407 85.3964 84.1429 85.3964H86.5574C86.5694 85.3964 86.5839 85.3964 86.5961 85.3941V81.777C86.5842 81.7744 86.5696 81.7744 86.5574 81.7744ZM78.1066 81.7744H75.6921C74.6901 81.7744 73.881 82.5858 73.881 83.5854C73.881 84.585 74.6899 85.3964 75.6921 85.3964H78.1066C78.5868 85.3963 79.0474 85.2054 79.387 84.8658C79.7266 84.5262 79.9174 84.0657 79.9176 83.5854C79.9174 83.1052 79.7266 82.6446 79.387 82.3051C79.0474 81.9655 78.5868 81.7746 78.1066 81.7744ZM69.6555 81.7744H67.241C66.239 81.7744 65.4299 82.5858 65.4299 83.5854C65.4299 84.585 66.2388 85.3964 67.241 85.3964H69.6555C70.1357 85.3963 70.5963 85.2054 70.9359 84.8658C71.2755 84.5262 71.4663 84.0657 71.4665 83.5854C71.4663 83.1052 71.2755 82.6446 70.9359 82.3051C70.5963 81.9655 70.1357 81.7746 69.6555 81.7744ZM61.2046 81.7744H58.7899C57.7879 81.7744 56.9789 82.5858 56.9789 83.5854C56.9789 84.585 57.7877 85.3964 58.7899 85.3964H61.2044C61.6847 85.3963 62.1452 85.2054 62.4848 84.8658C62.8244 84.5262 63.0152 84.0657 63.0154 83.5854C63.0153 83.1052 62.8245 82.6447 62.4849 82.3051C62.1454 81.9655 61.6849 81.7746 61.2046 81.7744ZM52.7535 81.7744H50.339C49.3371 81.7744 48.528 82.5858 48.528 83.5854C48.528 84.585 49.3368 85.3964 50.339 85.3964H52.7535C53.2338 85.3963 53.6943 85.2054 54.0339 84.8658C54.3735 84.5262 54.5644 84.0657 54.5646 83.5854C54.5644 83.1052 54.3735 82.6446 54.0339 82.3051C53.6943 81.9655 53.2338 81.7746 52.7535 81.7744ZM44.3024 81.7744H41.8879C40.886 81.7744 40.0769 82.5858 40.0769 83.5854C40.0769 84.585 40.8857 85.3964 41.8879 85.3964H44.3024C44.7827 85.3963 45.2432 85.2054 45.5828 84.8658C45.9224 84.5262 46.1133 84.0657 46.1135 83.5854C46.1133 83.1052 45.9224 82.6446 45.5828 82.3051C45.2432 81.9655 44.7827 81.7746 44.3024 81.7744ZM35.8516 81.7744H33.4371C32.4351 81.7744 31.626 82.5858 31.626 83.5854C31.626 84.585 32.4349 85.3964 33.4371 85.3964H35.8516C36.3318 85.3963 36.7924 85.2054 37.132 84.8658C37.4716 84.5262 37.6624 84.0657 37.6626 83.5854C37.6624 83.1052 37.4716 82.6446 37.132 82.3051C36.7924 81.9655 36.3318 81.7746 35.8516 81.7744ZM27.4005 81.7744H24.986C24.9595 81.7744 24.9304 81.7744 24.9039 81.7793V85.3915C24.9304 85.3964 24.9595 85.3964 24.986 85.3964H27.4005C27.8807 85.3963 28.3413 85.2054 28.6809 84.8658C29.0205 84.5262 29.2113 84.0657 29.2115 83.5854C29.2113 83.1052 29.0205 82.6446 28.6809 82.3051C28.3413 81.9655 27.8807 81.7746 27.4005 81.7744Z" fill="#FFDC00"/>
</svg>
