<svg width="28" height="28" viewBox="0 0 28 28" fill="none" xmlns="http://www.w3.org/2000/svg">
<path d="M22.75 19.6V6.65C22.75 4.9 21.35 3.5 19.6 3.5H15.75V1.75H19.25V0H8.75V1.75H12.25V3.5H8.4C6.65 3.5 5.25 4.9 5.25 6.65V19.6C5.25 21.35 6.65 22.75 8.4 22.75H8.75L7.525 24.5H5.25V26.25H6.475L5.25 28H8.75L9.8 26.25H18.375L19.425 28H22.925L21.7 26.25H22.75V24.5H20.475L19.25 22.75H19.6C21.35 22.75 22.75 21.35 22.75 19.6ZM7 6.825C7 5.95 7.7 5.25 8.575 5.25H19.25C20.3 5.25 21 5.95 21 6.825V10.5C21 11.55 20.3 12.25 19.425 12.25H8.575C7.7 12.25 7 11.55 7 10.675V6.825ZM7 19.25C7 18.2 7.7 17.5 8.75 17.5C9.8 17.5 10.5 18.2 10.5 19.25C10.5 20.3 9.8 21 8.75 21C7.7 21 7 20.3 7 19.25ZM17.325 24.5H10.675L11.725 22.75H16.275L17.325 24.5ZM17.5 19.25C17.5 18.2 18.2 17.5 19.25 17.5C20.3 17.5 21 18.2 21 19.25C21 20.3 20.3 21 19.25 21C18.2 21 17.5 20.3 17.5 19.25Z" fill="#E20177"/>
</svg>
