<svg width="18" height="22" viewBox="0 0 18 22" fill="none" xmlns="http://www.w3.org/2000/svg">
<path d="M6.5 21H11.5M5 1H13M9 4V1M1 11H17M14 18L15.5 21M4 18L2.5 21M5.5 14.5H5.51M12.5 14.5H12.51M5.8 18H12.2C13.8802 18 14.7202 18 15.362 17.673C15.9265 17.3854 16.3854 16.9265 16.673 16.362C17 15.7202 17 14.8802 17 13.2V8.8C17 7.11984 17 6.27976 16.673 5.63803C16.3854 5.07354 15.9265 4.6146 15.362 4.32698C14.7202 4 13.8802 4 12.2 4H5.8C4.11984 4 3.27976 4 2.63803 4.32698C2.07354 4.6146 1.6146 5.07354 1.32698 5.63803C1 6.27976 1 7.11984 1 8.8V13.2C1 14.8802 1 15.7202 1.32698 16.362C1.6146 16.9265 2.07354 17.3854 2.63803 17.673C3.27976 18 4.11984 18 5.8 18ZM6 14.5C6 14.7761 5.77614 15 5.5 15C5.22386 15 5 14.7761 5 14.5C5 14.2239 5.22386 14 5.5 14C5.77614 14 6 14.2239 6 14.5ZM13 14.5C13 14.7761 12.7761 15 12.5 15C12.2239 15 12 14.7761 12 14.5C12 14.2239 12.2239 14 12.5 14C12.7761 14 13 14.2239 13 14.5Z" stroke="#131E29" stroke-width="2" stroke-linecap="round" stroke-linejoin="round"/>
</svg>
