<svg width="30" height="30" viewBox="0 0 76 72" fill="none" xmlns="http://www.w3.org/2000/svg">
<path d="M60.0171 23.1169L65.0106 19.3718H58.7687H4.67293C4.12112 19.3718 3.59191 19.1526 3.20172 18.7624C2.81153 18.3722 2.59233 17.843 2.59233 17.2912C2.59233 16.7394 2.81153 16.2102 3.20172 15.82C3.59191 15.4298 4.12112 15.2106 4.67293 15.2106H59.1016H65.2096L60.3717 11.482L53.8466 6.45313C53.8455 6.45229 53.8444 6.45144 53.8434 6.4506C53.4088 6.11089 53.1264 5.61279 53.0582 5.0653C52.9898 4.51645 53.1423 3.96293 53.4821 3.52649C53.8218 3.09005 54.3211 2.80646 54.8699 2.73809C55.4188 2.66973 55.9723 2.8222 56.4087 3.16196L56.41 3.16298L72.4723 15.6466L72.4796 15.6523L72.487 15.6579C72.7415 15.8521 72.9477 16.1023 73.0897 16.3892C73.2316 16.6761 73.3055 16.9919 73.3055 17.312C73.3055 17.6321 73.2316 17.9479 73.0897 18.2347C72.9487 18.5196 72.7444 18.7683 72.4925 18.9619C72.4906 18.9633 72.4888 18.9647 72.487 18.9661L55.8559 31.4393C55.4957 31.7094 55.0577 31.8554 54.6075 31.8554C54.2845 31.8554 53.9659 31.7802 53.677 31.6358C53.3881 31.4913 53.1368 31.2816 52.943 31.0232C52.7791 30.8046 52.6598 30.5559 52.592 30.2912C52.5242 30.0265 52.5092 29.7511 52.5478 29.4806C52.5865 29.2101 52.678 28.9499 52.8172 28.7148C52.9564 28.4797 53.1406 28.2743 53.3591 28.1103L60.0171 23.1169ZM15.9082 48.9164L10.9148 52.6615H17.1566H71.2524C71.8042 52.6615 72.3334 52.8807 72.7236 53.2709C73.1138 53.6611 73.333 54.1903 73.333 54.7421C73.333 55.2939 73.1138 55.8231 72.7236 56.2133C72.3334 56.6035 71.8042 56.8227 71.2524 56.8227H16.8237H10.7157L15.5536 60.5513L22.0765 65.5785C22.5041 65.9186 22.781 66.4134 22.8469 66.9561C22.9131 67.5019 22.7607 68.0518 22.4228 68.4855L22.4155 68.4949C22.2217 68.7467 21.9728 68.9508 21.6878 69.0914C21.4048 69.2312 21.0936 69.3047 20.7779 69.3064C20.3206 69.3037 19.8768 69.1505 19.5153 68.8703C19.5149 68.87 19.5145 68.8697 19.5141 68.8695L3.45298 56.3867L3.44568 56.381L3.43832 56.3754C3.18385 56.1812 2.97761 55.931 2.83565 55.6441C2.69368 55.3572 2.61983 55.0414 2.61983 54.7213C2.61983 54.4012 2.69368 54.0854 2.83565 53.7986C2.97655 53.5138 3.18078 53.2651 3.43265 53.0716L20.0694 40.594C20.5109 40.2629 21.0658 40.1207 21.612 40.1988C22.1583 40.2768 22.6512 40.5687 22.9823 41.0101C23.3134 41.4516 23.4555 42.0064 23.3775 42.5527C23.2994 43.099 23.0076 43.5919 22.5662 43.923L15.9082 48.9164Z" stroke="#E20177" stroke-width="4.16121"/>
</svg>
