<svg width="29" height="28" viewBox="0 0 29 28" fill="none" xmlns="http://www.w3.org/2000/svg">
<path fill-rule="evenodd" clip-rule="evenodd" d="M13.497 5.08509C12.4809 5.20339 11.5373 5.49168 10.5126 5.99675C8.33492 7.0702 6.72703 8.9595 5.96613 11.3389L5.71561 12.1221L4.73773 12.1681C3.90734 12.2073 3.74024 12.2412 3.63006 12.393C3.53079 12.5298 3.50026 12.9222 3.50026 14.0602C3.50026 15.9087 3.44911 15.8361 4.77779 15.8731L5.72771 15.8996L5.88244 16.4524C6.13305 17.3473 6.47743 18.1013 7.00716 18.9143C7.66357 19.9217 8.21677 20.5234 9.10499 21.1961C13.3474 24.4092 19.4863 23.1977 22.1962 18.6128C22.6082 17.9158 22.8907 17.2525 23.1164 16.4524L23.2723 15.8996L24.2222 15.8731C25.5509 15.8361 25.4997 15.9087 25.4997 14.0602C25.4997 12.9222 25.4692 12.5298 25.3699 12.393C25.2598 12.2412 25.0927 12.2073 24.2623 12.1681L23.2844 12.1221L23.0339 11.3389C21.9226 7.86403 19.0182 5.49057 15.3708 5.0768C14.4563 4.97306 14.4588 4.97306 13.497 5.08509ZM15.916 8.53144C17.3605 8.90965 18.8739 10.1398 19.4936 11.4396L19.819 12.1221L14.5325 12.1458C11.625 12.1589 9.22773 12.1512 9.20528 12.1286C9.18282 12.106 9.34406 11.7482 9.5635 11.3333C9.86169 10.7697 10.1381 10.4129 10.6567 9.92248C11.4504 9.17168 12.0788 8.79762 12.9372 8.5647C13.7057 8.35611 15.1833 8.33962 15.916 8.53144ZM19.7849 15.8832C19.8108 15.9091 19.6948 16.2136 19.5273 16.5599C19.0657 17.5139 17.9027 18.6561 16.8833 19.1566C14.2014 20.4733 10.9 19.3226 9.48934 16.5793C9.32316 16.2561 9.1863 15.9628 9.18529 15.9274C9.18428 15.8921 9.39997 15.8506 9.6647 15.8352C10.4689 15.7887 19.7346 15.8326 19.7849 15.8832Z" fill="#E20177"/>
</svg>
