<svg width="44" height="44" viewBox="0 0 44 44" fill="none" xmlns="http://www.w3.org/2000/svg">
<rect x="0.5" y="0.5" width="43" height="43" rx="21.5" fill="#05326E"/>
<rect x="0.5" y="0.5" width="43" height="43" rx="21.5" stroke="#F4F5FA"/>
<g transform="translate(-6,-6) scale(0.75)"> 
<path d="M34.3766 41.6164L28.7197 47.2733M37.6943 32.6419L36.1334 34.2028C36.0061 34.3301 35.9424 34.3938 35.8699 34.4444C35.8055 34.4893 35.736 34.5265 35.663 34.5551C35.5806 34.5874 35.4924 34.6051 35.3158 34.6404L31.6513 35.3733C30.699 35.5637 30.2229 35.659 30.0001 35.91C29.8061 36.1287 29.7174 36.4214 29.7576 36.711C29.8037 37.0435 30.147 37.3869 30.8337 38.0736L37.9195 45.1593C38.6062 45.846 38.9496 46.1894 39.282 46.2355C39.5716 46.2756 39.8643 46.187 40.083 45.9929C40.3341 45.7702 40.4293 45.294 40.6198 44.3417L41.3527 40.6773C41.388 40.5007 41.4056 40.4124 41.4379 40.3301C41.4666 40.257 41.5038 40.1876 41.5487 40.1232C41.5992 40.0507 41.6629 39.987 41.7902 39.8597L43.3511 38.2988C43.4325 38.2174 43.4732 38.1767 43.518 38.1411C43.5577 38.1096 43.5998 38.0811 43.6439 38.0559C43.6935 38.0276 43.7464 38.0049 43.8522 37.9595L46.3466 36.8905C47.0743 36.5786 47.4381 36.4227 47.6034 36.1707C47.7479 35.9504 47.7996 35.6819 47.7473 35.4236C47.6874 35.1283 47.4075 34.8483 46.8477 34.2885L41.7045 29.1454C41.1447 28.5856 40.8648 28.3056 40.5695 28.2458C40.3112 28.1934 40.0427 28.2451 39.8223 28.3897C39.5703 28.5549 39.4144 28.9188 39.1025 29.6465L38.0335 32.1408C37.9882 32.2467 37.9655 32.2996 37.9372 32.3492C37.912 32.3932 37.8835 32.4353 37.8519 32.4751C37.8164 32.5198 37.7757 32.5605 37.6943 32.6419Z" stroke="white" stroke-width="2" stroke-linecap="round" stroke-linejoin="round"/>
</g>
</svg>
