<svg width="20" height="18" viewBox="0 0 20 18" fill="none" xmlns="http://www.w3.org/2000/svg">
<path d="M9.16669 11.5H6.66669C5.11355 11.5 4.33698 11.5 3.72441 11.7537C2.90765 12.092 2.25874 12.741 1.92042 13.5577C1.66669 14.1703 1.66669 14.9469 1.66669 16.5M12.9167 1.7423C14.1383 2.23679 15 3.43443 15 4.83333M9.99991 16.9167L11.6875 16.5792C11.8346 16.5497 11.9082 16.535 11.9768 16.5081C12.0377 16.4842 12.0956 16.4533 12.1492 16.4159C12.2097 16.3737 12.2627 16.3206 12.3688 16.2145L17.9167 10.6667C18.377 10.2065 18.377 9.46022 17.9167 8.99998C17.4565 8.53975 16.7103 8.53976 16.25 9L10.7021 14.5479C10.596 14.654 10.543 14.707 10.5008 14.7675C10.4634 14.8211 10.4324 14.879 10.4086 14.9399C10.3817 15.0085 10.3669 15.082 10.3375 15.2292L9.99991 16.9167ZM11.25 4.83333C11.25 6.67428 9.75764 8.16667 7.91669 8.16667C6.07574 8.16667 4.58335 6.67428 4.58335 4.83333C4.58335 2.99238 6.07574 1.5 7.91669 1.5C9.75764 1.5 11.25 2.99238 11.25 4.83333Z" stroke="#E20177" stroke-width="1.5" stroke-linecap="round" stroke-linejoin="round"/>
</svg>
