<svg width="54" height="44" viewBox="0 0 54 44" fill="none" xmlns="http://www.w3.org/2000/svg">
<path d="M17 12V9.5M17 23.25V20.75M17 34.5V32M14 42H40C44.2004 42 46.3006 42 47.9049 41.1825C49.3161 40.4635 50.4635 39.3161 51.1825 37.9049C52 36.3006 52 34.2004 52 30V14C52 9.79961 52 7.69941 51.1825 6.09507C50.4635 4.68386 49.3161 3.5365 47.9049 2.81745C46.3006 2 44.2004 2 40 2H14C9.79961 2 7.69941 2 6.09507 2.81745C4.68386 3.5365 3.5365 4.68386 2.81745 6.09507C2 7.69941 2 9.79961 2 14V30C2 34.2004 2 36.3006 2.81745 37.9049C3.5365 39.3161 4.68386 40.4635 6.09507 41.1825C7.69941 42 9.79961 42 14 42Z" stroke="#E20177" stroke-width="3" stroke-linecap="round" stroke-linejoin="round"/>
</svg>
