<svg width="30" height="30" viewBox="0 0 56 90" fill="none" xmlns="http://www.w3.org/2000/svg">
<path d="M21.3577 56.0026L14.5957 86.3794C14.3877 87.3504 13.8842 88.148 13.0852 88.7721C12.2863 89.3963 11.368 89.7084 10.3305 89.7084C8.94343 89.7084 7.83378 89.1883 7.00153 88.148C6.16929 87.1076 5.89188 85.9286 6.16929 84.6109L16.7804 31.0353L9.2902 33.9481V43.9351C9.2902 45.1141 8.89073 46.103 8.09177 46.902C7.29282 47.701 6.30522 48.099 5.12899 48.0963C3.94998 48.0963 2.96238 47.6968 2.1662 46.8978C1.37002 46.0989 0.970548 45.1113 0.967773 43.9351V31.2434C0.967773 30.4111 1.19387 29.6663 1.64605 29.0088C2.09824 28.3513 2.70439 27.8478 3.4645 27.4983L21.9819 19.592C22.9529 19.1758 23.9765 18.9331 25.0529 18.8637C26.1292 18.7944 27.1515 18.9331 28.1197 19.2799C29.0906 19.6266 30.0103 20.1121 30.8786 20.7363C31.7469 21.3605 32.4571 22.158 33.0091 23.129L37.1703 29.7869C38.0719 31.174 39.1303 32.4917 40.3453 33.7401C41.5604 34.9884 42.9295 36.0634 44.4525 36.965C45.4234 37.5198 46.4984 38.0234 47.6774 38.4755C48.8564 38.9277 50.0354 39.2565 51.2144 39.4618C52.3241 39.6698 53.2437 40.1733 53.9733 40.9723C54.7029 41.7712 55.0663 42.7588 55.0636 43.9351C55.0636 45.1141 54.6474 46.085 53.8152 46.8479C52.983 47.6108 51.9773 47.9229 50.7983 47.7842C46.9145 47.2294 43.4288 46.0157 40.3412 44.1431C37.2536 42.2706 34.5668 40.0166 32.2809 37.3811L29.6802 50.1769L37.1703 57.2509C37.5865 57.6671 37.8986 58.1359 38.1066 58.6574C38.3147 59.179 38.4187 59.7158 38.4187 60.2678V85.5472C38.4187 86.7262 38.0192 87.7152 37.2203 88.5141C36.4213 89.3131 35.4337 89.7112 34.2575 89.7084C33.0785 89.7084 32.0909 89.3089 31.2947 88.51C30.4985 87.711 30.099 86.7234 30.0963 85.5472V62.6605L21.3577 56.0026ZM32.1769 16.8872C29.8882 16.8872 27.9297 16.073 26.3012 14.4445C24.6728 12.8161 23.8572 10.8562 23.8545 8.56474C23.8545 6.27607 24.6701 4.31753 26.3012 2.6891C27.9324 1.06068 29.891 0.245084 32.1769 0.24231C34.4655 0.24231 36.4255 1.05791 38.0567 2.6891C39.6879 4.3203 40.5021 6.27884 40.4993 8.56474C40.4993 10.8534 39.6851 12.8133 38.0567 14.4445C36.4283 16.0757 34.4683 16.8899 32.1769 16.8872Z" fill="#E20177"/>
</svg>
